<?xml version="1.0" encoding="utf-8" standalone="no"?>
<!DOCTYPE svg PUBLIC "-//W3C//DTD SVG 1.1//EN"
  "http://www.w3.org/Graphics/SVG/1.1/DTD/svg11.dtd">
<svg xmlns:xlink="http://www.w3.org/1999/xlink" width="440.64pt" height="325.44pt" viewBox="0 0 440.64 325.44" xmlns="http://www.w3.org/2000/svg" version="1.1">
 <metadata>
  <rdf:RDF xmlns:dc="http://purl.org/dc/elements/1.1/" xmlns:cc="http://creativecommons.org/ns#" xmlns:rdf="http://www.w3.org/1999/02/22-rdf-syntax-ns#">
   <cc:Work>
    <dc:type rdf:resource="http://purl.org/dc/dcmitype/StillImage"/>
    <dc:date>2023-03-12T13:53:34.879210</dc:date>
    <dc:format>image/svg+xml</dc:format>
    <dc:creator>
     <cc:Agent>
      <dc:title>Matplotlib v3.5.1, https://matplotlib.org/</dc:title>
     </cc:Agent>
    </dc:creator>
   </cc:Work>
  </rdf:RDF>
 </metadata>
 <defs>
  <style type="text/css">*{stroke-linejoin: round; stroke-linecap: butt}</style>
 </defs>
 <g id="figure_1">
  <g id="patch_1">
   <path d="M 0 325.44 
L 440.64 325.44 
L 440.64 0 
L 0 0 
z
" style="fill: #ffffff"/>
  </g>
  <g id="axes_1">
   <g id="patch_2">
    <path d="M 65.356172 277.130711 
L 433.44 277.130711 
L 433.44 7.2 
L 65.356172 7.2 
z
" style="fill: #ffffff"/>
   </g>
   <g id="matplotlib.axis_1">
    <g id="xtick_1">
     <g id="line2d_1">
      <path d="M 145.318507 277.130711 
L 145.318507 7.2 
" clip-path="url(#pc565e20f3d)" style="fill: none; stroke-dasharray: 1.85,0.8; stroke-dashoffset: 0; stroke: #808080; stroke-opacity: 0.5; stroke-width: 0.5"/>
     </g>
     <g id="line2d_2">
      <defs>
       <path id="md17630f57f" d="M 0 0 
L 0 3.5 
" style="stroke: #000000; stroke-width: 0.8"/>
      </defs>
      <g>
       <use xlink:href="#md17630f57f" x="145.318507" y="277.130711" style="stroke: #000000; stroke-width: 0.8"/>
      </g>
     </g>
     <g id="text_1">
      <!-- $\mathdefault{10^{-4}}$ -->
      <g transform="translate(130.385713 295.2003)scale(0.16 -0.16)">
       <defs>
        <path id="CMR17-31" d="M 1702 4083 
C 1702 4217 1696 4224 1606 4224 
C 1357 3927 979 3833 621 3820 
C 602 3820 570 3820 563 3808 
C 557 3795 557 3782 557 3648 
C 755 3648 1088 3686 1344 3839 
L 1344 467 
C 1344 243 1331 166 781 166 
L 589 166 
L 589 0 
C 896 6 1216 12 1523 12 
C 1830 12 2150 6 2458 0 
L 2458 166 
L 2266 166 
C 1715 166 1702 236 1702 467 
L 1702 4083 
z
" transform="scale(0.015625)"/>
        <path id="CMR17-30" d="M 2688 2038 
C 2688 2430 2682 3099 2413 3613 
C 2176 4063 1798 4224 1466 4224 
C 1158 4224 768 4082 525 3620 
C 269 3137 243 2539 243 2038 
C 243 1671 250 1112 448 623 
C 723 -39 1216 -128 1466 -128 
C 1760 -128 2208 -7 2470 604 
C 2662 1048 2688 1568 2688 2038 
z
M 1466 -26 
C 1056 -26 813 328 723 816 
C 653 1196 653 1749 653 2109 
C 653 2604 653 3015 736 3407 
C 858 3954 1216 4121 1466 4121 
C 1728 4121 2067 3947 2189 3420 
C 2272 3054 2278 2623 2278 2109 
C 2278 1691 2278 1176 2202 797 
C 2067 96 1690 -26 1466 -26 
z
" transform="scale(0.015625)"/>
        <path id="CMSY10-0" d="M 4218 1472 
C 4326 1472 4442 1472 4442 1600 
C 4442 1728 4326 1728 4218 1728 
L 755 1728 
C 646 1728 531 1728 531 1600 
C 531 1472 646 1472 755 1472 
L 4218 1472 
z
" transform="scale(0.015625)"/>
        <path id="CMR17-34" d="M 2150 4147 
C 2150 4281 2144 4288 2029 4288 
L 128 1254 
L 128 1088 
L 1779 1088 
L 1779 460 
C 1779 230 1766 166 1318 166 
L 1197 166 
L 1197 0 
C 1402 12 1747 12 1965 12 
C 2182 12 2528 12 2733 0 
L 2733 166 
L 2611 166 
C 2163 166 2150 230 2150 460 
L 2150 1088 
L 2803 1088 
L 2803 1254 
L 2150 1254 
L 2150 4147 
z
M 1798 3723 
L 1798 1254 
L 256 1254 
L 1798 3723 
z
" transform="scale(0.015625)"/>
       </defs>
       <use xlink:href="#CMR17-31" transform="scale(0.996264)"/>
       <use xlink:href="#CMR17-30" transform="translate(45.690477 0)scale(0.996264)"/>
       <use xlink:href="#CMSY10-0" transform="translate(91.380954 36.153639)scale(0.697382)"/>
       <use xlink:href="#CMR17-34" transform="translate(145.621947 36.153639)scale(0.697382)"/>
      </g>
     </g>
    </g>
    <g id="xtick_2">
     <g id="line2d_3">
      <path d="M 235.781977 277.130711 
L 235.781977 7.2 
" clip-path="url(#pc565e20f3d)" style="fill: none; stroke-dasharray: 1.85,0.8; stroke-dashoffset: 0; stroke: #808080; stroke-opacity: 0.5; stroke-width: 0.5"/>
     </g>
     <g id="line2d_4">
      <g>
       <use xlink:href="#md17630f57f" x="235.781977" y="277.130711" style="stroke: #000000; stroke-width: 0.8"/>
      </g>
     </g>
     <g id="text_2">
      <!-- $\mathdefault{10^{-3}}$ -->
      <g transform="translate(220.849183 295.2003)scale(0.16 -0.16)">
       <defs>
        <path id="CMR17-33" d="M 1414 2176 
C 1984 2176 2234 1673 2234 1094 
C 2234 322 1824 25 1453 25 
C 1114 25 563 193 390 691 
C 422 678 454 678 486 678 
C 640 678 755 780 755 947 
C 755 1132 614 1216 486 1216 
C 378 1216 211 1164 211 927 
C 211 335 787 -128 1466 -128 
C 2176 -128 2720 432 2720 1087 
C 2720 1718 2208 2176 1600 2246 
C 2086 2347 2554 2776 2554 3353 
C 2554 3856 2048 4224 1472 4224 
C 890 4224 378 3862 378 3347 
C 378 3123 544 3084 627 3084 
C 762 3084 877 3167 877 3334 
C 877 3500 762 3584 627 3584 
C 602 3584 570 3584 544 3571 
C 730 3999 1235 4076 1459 4076 
C 1683 4076 2106 3966 2106 3347 
C 2106 3167 2080 2851 1862 2574 
C 1670 2329 1453 2316 1242 2297 
C 1210 2297 1062 2284 1037 2284 
C 992 2278 966 2272 966 2227 
C 966 2182 973 2176 1101 2176 
L 1414 2176 
z
" transform="scale(0.015625)"/>
       </defs>
       <use xlink:href="#CMR17-31" transform="scale(0.996264)"/>
       <use xlink:href="#CMR17-30" transform="translate(45.690477 0)scale(0.996264)"/>
       <use xlink:href="#CMSY10-0" transform="translate(91.380954 36.153639)scale(0.697382)"/>
       <use xlink:href="#CMR17-33" transform="translate(145.621947 36.153639)scale(0.697382)"/>
      </g>
     </g>
    </g>
    <g id="xtick_3">
     <g id="line2d_5">
      <path d="M 326.245447 277.130711 
L 326.245447 7.2 
" clip-path="url(#pc565e20f3d)" style="fill: none; stroke-dasharray: 1.85,0.8; stroke-dashoffset: 0; stroke: #808080; stroke-opacity: 0.5; stroke-width: 0.5"/>
     </g>
     <g id="line2d_6">
      <g>
       <use xlink:href="#md17630f57f" x="326.245447" y="277.130711" style="stroke: #000000; stroke-width: 0.8"/>
      </g>
     </g>
     <g id="text_3">
      <!-- $\mathdefault{10^{-2}}$ -->
      <g transform="translate(311.312653 295.2003)scale(0.16 -0.16)">
       <defs>
        <path id="CMR17-32" d="M 2669 990 
L 2554 990 
C 2490 537 2438 460 2413 422 
C 2381 371 1920 371 1830 371 
L 602 371 
C 832 620 1280 1073 1824 1596 
C 2214 1966 2669 2400 2669 3033 
C 2669 3788 2067 4224 1395 4224 
C 691 4224 262 3603 262 3027 
C 262 2777 448 2745 525 2745 
C 589 2745 781 2783 781 3007 
C 781 3206 614 3264 525 3264 
C 486 3264 448 3257 422 3244 
C 544 3788 915 4057 1306 4057 
C 1862 4057 2227 3616 2227 3033 
C 2227 2477 1901 1998 1536 1583 
L 262 147 
L 262 0 
L 2515 0 
L 2669 990 
z
" transform="scale(0.015625)"/>
       </defs>
       <use xlink:href="#CMR17-31" transform="scale(0.996264)"/>
       <use xlink:href="#CMR17-30" transform="translate(45.690477 0)scale(0.996264)"/>
       <use xlink:href="#CMSY10-0" transform="translate(91.380954 36.153639)scale(0.697382)"/>
       <use xlink:href="#CMR17-32" transform="translate(145.621947 36.153639)scale(0.697382)"/>
      </g>
     </g>
    </g>
    <g id="xtick_4">
     <g id="line2d_7">
      <path d="M 416.708917 277.130711 
L 416.708917 7.2 
" clip-path="url(#pc565e20f3d)" style="fill: none; stroke-dasharray: 1.85,0.8; stroke-dashoffset: 0; stroke: #808080; stroke-opacity: 0.5; stroke-width: 0.5"/>
     </g>
     <g id="line2d_8">
      <g>
       <use xlink:href="#md17630f57f" x="416.708917" y="277.130711" style="stroke: #000000; stroke-width: 0.8"/>
      </g>
     </g>
     <g id="text_4">
      <!-- $\mathdefault{10^{-1}}$ -->
      <g transform="translate(401.776122 295.2003)scale(0.16 -0.16)">
       <use xlink:href="#CMR17-31" transform="scale(0.996264)"/>
       <use xlink:href="#CMR17-30" transform="translate(45.690477 0)scale(0.996264)"/>
       <use xlink:href="#CMSY10-0" transform="translate(91.380954 36.153639)scale(0.697382)"/>
       <use xlink:href="#CMR17-31" transform="translate(145.621947 36.153639)scale(0.697382)"/>
      </g>
     </g>
    </g>
    <g id="xtick_5">
     <g id="line2d_9">
      <defs>
       <path id="m0f462aa5f0" d="M 0 0 
L 0 2 
" style="stroke: #000000; stroke-width: 0.6"/>
      </defs>
      <g>
       <use xlink:href="#m0f462aa5f0" x="82.087255" y="277.130711" style="stroke: #000000; stroke-width: 0.6"/>
      </g>
     </g>
    </g>
    <g id="xtick_6">
     <g id="line2d_10">
      <g>
       <use xlink:href="#m0f462aa5f0" x="98.017082" y="277.130711" style="stroke: #000000; stroke-width: 0.6"/>
      </g>
     </g>
    </g>
    <g id="xtick_7">
     <g id="line2d_11">
      <g>
       <use xlink:href="#m0f462aa5f0" x="109.319473" y="277.130711" style="stroke: #000000; stroke-width: 0.6"/>
      </g>
     </g>
    </g>
    <g id="xtick_8">
     <g id="line2d_12">
      <g>
       <use xlink:href="#m0f462aa5f0" x="118.086289" y="277.130711" style="stroke: #000000; stroke-width: 0.6"/>
      </g>
     </g>
    </g>
    <g id="xtick_9">
     <g id="line2d_13">
      <g>
       <use xlink:href="#m0f462aa5f0" x="125.2493" y="277.130711" style="stroke: #000000; stroke-width: 0.6"/>
      </g>
     </g>
    </g>
    <g id="xtick_10">
     <g id="line2d_14">
      <g>
       <use xlink:href="#m0f462aa5f0" x="131.305538" y="277.130711" style="stroke: #000000; stroke-width: 0.6"/>
      </g>
     </g>
    </g>
    <g id="xtick_11">
     <g id="line2d_15">
      <g>
       <use xlink:href="#m0f462aa5f0" x="136.551691" y="277.130711" style="stroke: #000000; stroke-width: 0.6"/>
      </g>
     </g>
    </g>
    <g id="xtick_12">
     <g id="line2d_16">
      <g>
       <use xlink:href="#m0f462aa5f0" x="141.179126" y="277.130711" style="stroke: #000000; stroke-width: 0.6"/>
      </g>
     </g>
    </g>
    <g id="xtick_13">
     <g id="line2d_17">
      <g>
       <use xlink:href="#m0f462aa5f0" x="172.550725" y="277.130711" style="stroke: #000000; stroke-width: 0.6"/>
      </g>
     </g>
    </g>
    <g id="xtick_14">
     <g id="line2d_18">
      <g>
       <use xlink:href="#m0f462aa5f0" x="188.480551" y="277.130711" style="stroke: #000000; stroke-width: 0.6"/>
      </g>
     </g>
    </g>
    <g id="xtick_15">
     <g id="line2d_19">
      <g>
       <use xlink:href="#m0f462aa5f0" x="199.782943" y="277.130711" style="stroke: #000000; stroke-width: 0.6"/>
      </g>
     </g>
    </g>
    <g id="xtick_16">
     <g id="line2d_20">
      <g>
       <use xlink:href="#m0f462aa5f0" x="208.549759" y="277.130711" style="stroke: #000000; stroke-width: 0.6"/>
      </g>
     </g>
    </g>
    <g id="xtick_17">
     <g id="line2d_21">
      <g>
       <use xlink:href="#m0f462aa5f0" x="215.712769" y="277.130711" style="stroke: #000000; stroke-width: 0.6"/>
      </g>
     </g>
    </g>
    <g id="xtick_18">
     <g id="line2d_22">
      <g>
       <use xlink:href="#m0f462aa5f0" x="221.769008" y="277.130711" style="stroke: #000000; stroke-width: 0.6"/>
      </g>
     </g>
    </g>
    <g id="xtick_19">
     <g id="line2d_23">
      <g>
       <use xlink:href="#m0f462aa5f0" x="227.015161" y="277.130711" style="stroke: #000000; stroke-width: 0.6"/>
      </g>
     </g>
    </g>
    <g id="xtick_20">
     <g id="line2d_24">
      <g>
       <use xlink:href="#m0f462aa5f0" x="231.642596" y="277.130711" style="stroke: #000000; stroke-width: 0.6"/>
      </g>
     </g>
    </g>
    <g id="xtick_21">
     <g id="line2d_25">
      <g>
       <use xlink:href="#m0f462aa5f0" x="263.014195" y="277.130711" style="stroke: #000000; stroke-width: 0.6"/>
      </g>
     </g>
    </g>
    <g id="xtick_22">
     <g id="line2d_26">
      <g>
       <use xlink:href="#m0f462aa5f0" x="278.944021" y="277.130711" style="stroke: #000000; stroke-width: 0.6"/>
      </g>
     </g>
    </g>
    <g id="xtick_23">
     <g id="line2d_27">
      <g>
       <use xlink:href="#m0f462aa5f0" x="290.246413" y="277.130711" style="stroke: #000000; stroke-width: 0.6"/>
      </g>
     </g>
    </g>
    <g id="xtick_24">
     <g id="line2d_28">
      <g>
       <use xlink:href="#m0f462aa5f0" x="299.013229" y="277.130711" style="stroke: #000000; stroke-width: 0.6"/>
      </g>
     </g>
    </g>
    <g id="xtick_25">
     <g id="line2d_29">
      <g>
       <use xlink:href="#m0f462aa5f0" x="306.176239" y="277.130711" style="stroke: #000000; stroke-width: 0.6"/>
      </g>
     </g>
    </g>
    <g id="xtick_26">
     <g id="line2d_30">
      <g>
       <use xlink:href="#m0f462aa5f0" x="312.232478" y="277.130711" style="stroke: #000000; stroke-width: 0.6"/>
      </g>
     </g>
    </g>
    <g id="xtick_27">
     <g id="line2d_31">
      <g>
       <use xlink:href="#m0f462aa5f0" x="317.478631" y="277.130711" style="stroke: #000000; stroke-width: 0.6"/>
      </g>
     </g>
    </g>
    <g id="xtick_28">
     <g id="line2d_32">
      <g>
       <use xlink:href="#m0f462aa5f0" x="322.106066" y="277.130711" style="stroke: #000000; stroke-width: 0.6"/>
      </g>
     </g>
    </g>
    <g id="xtick_29">
     <g id="line2d_33">
      <g>
       <use xlink:href="#m0f462aa5f0" x="353.477665" y="277.130711" style="stroke: #000000; stroke-width: 0.6"/>
      </g>
     </g>
    </g>
    <g id="xtick_30">
     <g id="line2d_34">
      <g>
       <use xlink:href="#m0f462aa5f0" x="369.407491" y="277.130711" style="stroke: #000000; stroke-width: 0.6"/>
      </g>
     </g>
    </g>
    <g id="xtick_31">
     <g id="line2d_35">
      <g>
       <use xlink:href="#m0f462aa5f0" x="380.709883" y="277.130711" style="stroke: #000000; stroke-width: 0.6"/>
      </g>
     </g>
    </g>
    <g id="xtick_32">
     <g id="line2d_36">
      <g>
       <use xlink:href="#m0f462aa5f0" x="389.476699" y="277.130711" style="stroke: #000000; stroke-width: 0.6"/>
      </g>
     </g>
    </g>
    <g id="xtick_33">
     <g id="line2d_37">
      <g>
       <use xlink:href="#m0f462aa5f0" x="396.639709" y="277.130711" style="stroke: #000000; stroke-width: 0.6"/>
      </g>
     </g>
    </g>
    <g id="xtick_34">
     <g id="line2d_38">
      <g>
       <use xlink:href="#m0f462aa5f0" x="402.695948" y="277.130711" style="stroke: #000000; stroke-width: 0.6"/>
      </g>
     </g>
    </g>
    <g id="xtick_35">
     <g id="line2d_39">
      <g>
       <use xlink:href="#m0f462aa5f0" x="407.942101" y="277.130711" style="stroke: #000000; stroke-width: 0.6"/>
      </g>
     </g>
    </g>
    <g id="xtick_36">
     <g id="line2d_40">
      <g>
       <use xlink:href="#m0f462aa5f0" x="412.569536" y="277.130711" style="stroke: #000000; stroke-width: 0.6"/>
      </g>
     </g>
    </g>
    <g id="text_5">
     <!-- Time [s] -->
     <g transform="translate(221.607221 314.254944)scale(0.16 -0.16)">
      <defs>
       <path id="CMR17-54" d="M 3981 4332 
L 288 4332 
L 179 2924 
L 294 2924 
C 378 3981 467 4166 1453 4166 
C 1568 4166 1754 4166 1805 4159 
C 1926 4140 1926 4064 1926 3917 
L 1926 465 
C 1926 236 1907 166 1376 166 
L 1197 166 
L 1197 0 
C 1504 6 1824 12 2138 12 
C 2451 12 2771 6 3078 0 
L 3078 166 
L 2899 166 
C 2368 166 2349 236 2349 465 
L 2349 3917 
C 2349 4057 2349 4134 2464 4159 
C 2515 4166 2701 4166 2816 4166 
C 3795 4166 3891 3981 3974 2924 
L 4090 2924 
L 3981 4332 
z
" transform="scale(0.015625)"/>
       <path id="CMR17-69" d="M 992 3961 
C 992 4102 877 4224 730 4224 
C 589 4224 467 4108 467 3961 
C 467 3820 582 3699 730 3699 
C 870 3699 992 3814 992 3961 
z
M 243 2745 
L 243 2579 
C 602 2579 653 2540 653 2231 
L 653 443 
C 653 198 627 166 218 166 
L 218 0 
C 371 12 646 12 806 12 
C 960 12 1222 12 1370 0 
L 1370 166 
C 992 166 979 205 979 436 
L 979 2816 
L 243 2745 
z
" transform="scale(0.015625)"/>
       <path id="CMR17-6d" d="M 4326 1954 
C 4326 2276 4269 2816 3507 2816 
C 3072 2816 2771 2520 2656 2173 
L 2650 2173 
C 2573 2700 2195 2816 1837 2816 
C 1331 2816 1069 2424 973 2166 
L 966 2166 
L 966 2816 
L 211 2745 
L 211 2578 
C 589 2578 646 2540 646 2231 
L 646 443 
C 646 198 621 166 211 166 
L 211 0 
C 365 12 646 12 813 12 
C 979 12 1267 12 1421 0 
L 1421 166 
C 1011 166 986 192 986 443 
L 986 1678 
C 986 2269 1344 2713 1792 2713 
C 2266 2713 2317 2289 2317 1980 
L 2317 443 
C 2317 198 2291 166 1882 166 
L 1882 0 
C 2035 12 2317 12 2483 12 
C 2650 12 2938 12 3091 0 
L 3091 166 
C 2682 166 2656 192 2656 443 
L 2656 1678 
C 2656 2269 3014 2713 3462 2713 
C 3936 2713 3987 2289 3987 1980 
L 3987 443 
C 3987 198 3962 166 3552 166 
L 3552 0 
C 3706 12 3987 12 4154 12 
C 4320 12 4608 12 4762 0 
L 4762 166 
C 4352 166 4326 192 4326 443 
L 4326 1954 
z
" transform="scale(0.015625)"/>
       <path id="CMR17-65" d="M 2438 1503 
C 2464 1529 2464 1542 2464 1606 
C 2464 2251 2118 2816 1389 2816 
C 710 2816 173 2175 173 1394 
C 173 554 781 -64 1459 -64 
C 2176 -64 2458 619 2458 755 
C 2458 800 2419 800 2406 800 
C 2362 800 2355 787 2330 709 
C 2189 270 1837 51 1504 51 
C 1229 51 954 206 781 490 
C 582 819 582 1200 582 1503 
L 2438 1503 
z
M 589 1600 
C 634 2511 1126 2713 1382 2713 
C 1818 2713 2112 2308 2118 1600 
L 589 1600 
z
" transform="scale(0.015625)"/>
       <path id="CMR17-5b" d="M 1504 -1600 
L 1504 -1376 
L 902 -1376 
L 902 4575 
L 1504 4575 
L 1504 4800 
L 678 4800 
L 678 -1600 
L 1504 -1600 
z
" transform="scale(0.015625)"/>
       <path id="CMR17-73" d="M 1978 2688 
C 1978 2803 1971 2809 1933 2809 
C 1907 2809 1901 2803 1824 2707 
C 1805 2681 1747 2617 1728 2592 
C 1523 2809 1235 2816 1126 2816 
C 416 2816 160 2444 160 2073 
C 160 1497 813 1363 998 1324 
C 1402 1241 1542 1216 1677 1100 
C 1760 1024 1901 883 1901 652 
C 1901 384 1747 38 1158 38 
C 602 38 403 460 288 1024 
C 269 1113 269 1120 218 1120 
C 166 1120 160 1113 160 985 
L 160 64 
C 160 -52 166 -58 205 -58 
C 237 -58 243 -52 275 0 
C 314 57 410 211 448 275 
C 576 102 800 -64 1158 -64 
C 1792 -64 2131 281 2131 780 
C 2131 1107 1958 1280 1875 1356 
C 1683 1555 1459 1600 1190 1651 
C 838 1728 390 1817 390 2208 
C 390 2374 480 2726 1126 2726 
C 1811 2726 1850 2086 1862 1881 
C 1869 1849 1901 1843 1920 1843 
C 1978 1843 1978 1862 1978 1971 
L 1978 2688 
z
" transform="scale(0.015625)"/>
       <path id="CMR17-5d" d="M 915 4800 
L 90 4800 
L 90 4575 
L 691 4575 
L 691 -1376 
L 90 -1376 
L 90 -1600 
L 915 -1600 
L 915 4800 
z
" transform="scale(0.015625)"/>
      </defs>
      <use xlink:href="#CMR17-54" transform="scale(0.996264)"/>
      <use xlink:href="#CMR17-69" transform="translate(66.509881 0)scale(0.996264)"/>
      <use xlink:href="#CMR17-6d" transform="translate(91.380939 0)scale(0.996264)"/>
      <use xlink:href="#CMR17-65" transform="translate(168.300529 0)scale(0.996264)"/>
      <use xlink:href="#CMR17-5b" transform="translate(238.862156 0)scale(0.996264)"/>
      <use xlink:href="#CMR17-73" transform="translate(263.733214 0)scale(0.996264)"/>
      <use xlink:href="#CMR17-5d" transform="translate(299.534552 0)scale(0.996264)"/>
     </g>
    </g>
   </g>
   <g id="matplotlib.axis_2">
    <g id="ytick_1">
     <g id="line2d_41">
      <path d="M 65.356172 257.009613 
L 433.44 257.009613 
" clip-path="url(#pc565e20f3d)" style="fill: none; stroke-dasharray: 1.85,0.8; stroke-dashoffset: 0; stroke: #808080; stroke-opacity: 0.5; stroke-width: 0.5"/>
     </g>
     <g id="line2d_42">
      <defs>
       <path id="mfdb094b134" d="M 0 0 
L -3.5 0 
" style="stroke: #000000; stroke-width: 0.8"/>
      </defs>
      <g>
       <use xlink:href="#mfdb094b134" x="65.356172" y="257.009613" style="stroke: #000000; stroke-width: 0.8"/>
      </g>
     </g>
     <g id="text_6">
      <!-- $\mathdefault{1250}$ -->
      <g transform="translate(27.140224 262.544407)scale(0.16 -0.16)">
       <defs>
        <path id="CMR17-35" d="M 730 3750 
C 794 3724 1056 3641 1325 3641 
C 1920 3641 2246 3961 2432 4140 
C 2432 4191 2432 4224 2394 4224 
C 2387 4224 2374 4224 2323 4198 
C 2099 4102 1837 4032 1517 4032 
C 1325 4032 1037 4055 723 4191 
C 653 4224 640 4224 634 4224 
C 602 4224 595 4217 595 4090 
L 595 2231 
C 595 2113 595 2080 659 2080 
C 691 2080 704 2093 736 2139 
C 941 2435 1222 2560 1542 2560 
C 1766 2560 2246 2415 2246 1293 
C 2246 1087 2246 716 2054 422 
C 1894 159 1645 25 1370 25 
C 947 25 518 319 403 812 
C 429 806 480 793 506 793 
C 589 793 749 838 749 1036 
C 749 1209 627 1280 506 1280 
C 358 1280 262 1190 262 1011 
C 262 454 704 -128 1382 -128 
C 2042 -128 2669 441 2669 1267 
C 2669 2054 2170 2662 1549 2662 
C 1222 2662 947 2540 730 2304 
L 730 3750 
z
" transform="scale(0.015625)"/>
       </defs>
       <use xlink:href="#CMR17-31" transform="scale(0.996264)"/>
       <use xlink:href="#CMR17-32" transform="translate(45.690477 0)scale(0.996264)"/>
       <use xlink:href="#CMR17-35" transform="translate(91.380954 0)scale(0.996264)"/>
       <use xlink:href="#CMR17-30" transform="translate(137.071431 0)scale(0.996264)"/>
      </g>
     </g>
    </g>
    <g id="ytick_2">
     <g id="line2d_43">
      <path d="M 65.356172 217.755418 
L 433.44 217.755418 
" clip-path="url(#pc565e20f3d)" style="fill: none; stroke-dasharray: 1.85,0.8; stroke-dashoffset: 0; stroke: #808080; stroke-opacity: 0.5; stroke-width: 0.5"/>
     </g>
     <g id="line2d_44">
      <g>
       <use xlink:href="#mfdb094b134" x="65.356172" y="217.755418" style="stroke: #000000; stroke-width: 0.8"/>
      </g>
     </g>
     <g id="text_7">
      <!-- $\mathdefault{1500}$ -->
      <g transform="translate(27.140224 223.290212)scale(0.16 -0.16)">
       <use xlink:href="#CMR17-31" transform="scale(0.996264)"/>
       <use xlink:href="#CMR17-35" transform="translate(45.690477 0)scale(0.996264)"/>
       <use xlink:href="#CMR17-30" transform="translate(91.380954 0)scale(0.996264)"/>
       <use xlink:href="#CMR17-30" transform="translate(137.071431 0)scale(0.996264)"/>
      </g>
     </g>
    </g>
    <g id="ytick_3">
     <g id="line2d_45">
      <path d="M 65.356172 178.501223 
L 433.44 178.501223 
" clip-path="url(#pc565e20f3d)" style="fill: none; stroke-dasharray: 1.85,0.8; stroke-dashoffset: 0; stroke: #808080; stroke-opacity: 0.5; stroke-width: 0.5"/>
     </g>
     <g id="line2d_46">
      <g>
       <use xlink:href="#mfdb094b134" x="65.356172" y="178.501223" style="stroke: #000000; stroke-width: 0.8"/>
      </g>
     </g>
     <g id="text_8">
      <!-- $\mathdefault{1750}$ -->
      <g transform="translate(27.140224 184.036017)scale(0.16 -0.16)">
       <defs>
        <path id="CMR17-37" d="M 2886 3955 
L 2886 4096 
L 1382 4096 
C 634 4096 621 4166 595 4288 
L 480 4288 
L 294 3104 
L 410 3104 
C 429 3226 474 3552 550 3673 
C 589 3724 1062 3724 1171 3724 
L 2579 3724 
L 1869 2670 
C 1395 1961 1069 1003 1069 166 
C 1069 89 1069 -128 1299 -128 
C 1530 -128 1530 89 1530 172 
L 1530 466 
C 1530 1514 1709 2204 2003 2644 
L 2886 3955 
z
" transform="scale(0.015625)"/>
       </defs>
       <use xlink:href="#CMR17-31" transform="scale(0.996264)"/>
       <use xlink:href="#CMR17-37" transform="translate(45.690477 0)scale(0.996264)"/>
       <use xlink:href="#CMR17-35" transform="translate(91.380954 0)scale(0.996264)"/>
       <use xlink:href="#CMR17-30" transform="translate(137.071431 0)scale(0.996264)"/>
      </g>
     </g>
    </g>
    <g id="ytick_4">
     <g id="line2d_47">
      <path d="M 65.356172 139.247028 
L 433.44 139.247028 
" clip-path="url(#pc565e20f3d)" style="fill: none; stroke-dasharray: 1.85,0.8; stroke-dashoffset: 0; stroke: #808080; stroke-opacity: 0.5; stroke-width: 0.5"/>
     </g>
     <g id="line2d_48">
      <g>
       <use xlink:href="#mfdb094b134" x="65.356172" y="139.247028" style="stroke: #000000; stroke-width: 0.8"/>
      </g>
     </g>
     <g id="text_9">
      <!-- $\mathdefault{2000}$ -->
      <g transform="translate(27.140224 144.781822)scale(0.16 -0.16)">
       <use xlink:href="#CMR17-32" transform="scale(0.996264)"/>
       <use xlink:href="#CMR17-30" transform="translate(45.690477 0)scale(0.996264)"/>
       <use xlink:href="#CMR17-30" transform="translate(91.380954 0)scale(0.996264)"/>
       <use xlink:href="#CMR17-30" transform="translate(137.071431 0)scale(0.996264)"/>
      </g>
     </g>
    </g>
    <g id="ytick_5">
     <g id="line2d_49">
      <path d="M 65.356172 99.992833 
L 433.44 99.992833 
" clip-path="url(#pc565e20f3d)" style="fill: none; stroke-dasharray: 1.85,0.8; stroke-dashoffset: 0; stroke: #808080; stroke-opacity: 0.5; stroke-width: 0.5"/>
     </g>
     <g id="line2d_50">
      <g>
       <use xlink:href="#mfdb094b134" x="65.356172" y="99.992833" style="stroke: #000000; stroke-width: 0.8"/>
      </g>
     </g>
     <g id="text_10">
      <!-- $\mathdefault{2250}$ -->
      <g transform="translate(27.140224 105.527628)scale(0.16 -0.16)">
       <use xlink:href="#CMR17-32" transform="scale(0.996264)"/>
       <use xlink:href="#CMR17-32" transform="translate(45.690477 0)scale(0.996264)"/>
       <use xlink:href="#CMR17-35" transform="translate(91.380954 0)scale(0.996264)"/>
       <use xlink:href="#CMR17-30" transform="translate(137.071431 0)scale(0.996264)"/>
      </g>
     </g>
    </g>
    <g id="ytick_6">
     <g id="line2d_51">
      <path d="M 65.356172 60.738639 
L 433.44 60.738639 
" clip-path="url(#pc565e20f3d)" style="fill: none; stroke-dasharray: 1.85,0.8; stroke-dashoffset: 0; stroke: #808080; stroke-opacity: 0.5; stroke-width: 0.5"/>
     </g>
     <g id="line2d_52">
      <g>
       <use xlink:href="#mfdb094b134" x="65.356172" y="60.738639" style="stroke: #000000; stroke-width: 0.8"/>
      </g>
     </g>
     <g id="text_11">
      <!-- $\mathdefault{2500}$ -->
      <g transform="translate(27.140224 66.273433)scale(0.16 -0.16)">
       <use xlink:href="#CMR17-32" transform="scale(0.996264)"/>
       <use xlink:href="#CMR17-35" transform="translate(45.690477 0)scale(0.996264)"/>
       <use xlink:href="#CMR17-30" transform="translate(91.380954 0)scale(0.996264)"/>
       <use xlink:href="#CMR17-30" transform="translate(137.071431 0)scale(0.996264)"/>
      </g>
     </g>
    </g>
    <g id="ytick_7">
     <g id="line2d_53">
      <path d="M 65.356172 21.484444 
L 433.44 21.484444 
" clip-path="url(#pc565e20f3d)" style="fill: none; stroke-dasharray: 1.85,0.8; stroke-dashoffset: 0; stroke: #808080; stroke-opacity: 0.5; stroke-width: 0.5"/>
     </g>
     <g id="line2d_54">
      <g>
       <use xlink:href="#mfdb094b134" x="65.356172" y="21.484444" style="stroke: #000000; stroke-width: 0.8"/>
      </g>
     </g>
     <g id="text_12">
      <!-- $\mathdefault{2750}$ -->
      <g transform="translate(27.140224 27.019238)scale(0.16 -0.16)">
       <use xlink:href="#CMR17-32" transform="scale(0.996264)"/>
       <use xlink:href="#CMR17-37" transform="translate(45.690477 0)scale(0.996264)"/>
       <use xlink:href="#CMR17-35" transform="translate(91.380954 0)scale(0.996264)"/>
       <use xlink:href="#CMR17-30" transform="translate(137.071431 0)scale(0.996264)"/>
      </g>
     </g>
    </g>
    <g id="text_13">
     <!-- Temperature [K] -->
     <g transform="translate(19.155168 198.95828)rotate(-90)scale(0.16 -0.16)">
      <defs>
       <path id="CMR17-70" d="M 1408 -1114 
C 998 -1114 973 -1088 973 -834 
L 973 380 
C 1158 109 1427 -64 1766 -64 
C 2406 -64 3053 503 3053 1382 
C 3053 2196 2496 2816 1837 2816 
C 1453 2816 1139 2603 960 2345 
L 960 2816 
L 198 2745 
L 198 2577 
C 576 2577 634 2539 634 2228 
L 634 -834 
C 634 -1081 608 -1114 198 -1114 
L 198 -1280 
C 352 -1268 634 -1268 800 -1268 
C 966 -1268 1254 -1268 1408 -1280 
L 1408 -1114 
z
M 973 2015 
C 973 2106 973 2241 1222 2481 
C 1254 2506 1472 2700 1792 2700 
C 2259 2700 2643 2112 2643 1376 
C 2643 639 2234 38 1728 38 
C 1498 38 1248 148 1056 451 
C 973 594 973 632 973 736 
L 973 2015 
z
" transform="scale(0.015625)"/>
       <path id="CMR17-72" d="M 960 1517 
C 960 2134 1222 2713 1702 2713 
C 1747 2713 1792 2707 1837 2687 
C 1837 2687 1696 2642 1696 2475 
C 1696 2321 1818 2257 1914 2257 
C 1990 2257 2131 2302 2131 2482 
C 2131 2687 1926 2816 1709 2816 
C 1222 2816 1011 2340 947 2115 
L 941 2115 
L 941 2816 
L 198 2745 
L 198 2578 
C 576 2578 634 2540 634 2231 
L 634 443 
C 634 198 608 166 198 166 
L 198 0 
C 352 12 646 12 813 12 
C 998 12 1325 12 1498 0 
L 1498 166 
C 1037 166 960 166 960 455 
L 960 1517 
z
" transform="scale(0.015625)"/>
       <path id="CMR17-61" d="M 2304 1656 
C 2304 2048 2304 2275 2035 2534 
C 1798 2751 1523 2816 1306 2816 
C 800 2816 435 2408 435 1977 
C 435 1740 627 1728 666 1728 
C 749 1728 896 1779 896 1958 
C 896 2118 774 2188 666 2188 
C 640 2188 608 2182 589 2176 
C 723 2594 1069 2713 1293 2713 
C 1613 2713 1965 2421 1965 1875 
L 1965 1632 
C 1587 1619 1133 1568 774 1373 
C 371 1147 256 822 256 576 
C 256 77 832 -64 1171 -64 
C 1523 -64 1850 135 1990 505 
C 2003 219 2182 -39 2464 -39 
C 2598 -39 2938 51 2938 563 
L 2938 926 
L 2822 926 
L 2822 557 
C 2822 161 2650 109 2566 109 
C 2304 109 2304 446 2304 732 
L 2304 1656 
z
M 1965 887 
C 1965 323 1568 38 1216 38 
C 896 38 646 278 646 576 
C 646 771 730 1114 1101 1322 
C 1408 1497 1760 1523 1965 1536 
L 1965 887 
z
" transform="scale(0.015625)"/>
       <path id="CMR17-74" d="M 966 2585 
L 1862 2585 
L 1862 2752 
L 966 2752 
L 966 3968 
L 851 3968 
C 838 3292 614 2700 70 2687 
L 70 2585 
L 627 2585 
L 627 778 
C 627 655 627 -64 1370 -64 
C 1747 -64 1965 308 1965 784 
L 1965 1151 
L 1850 1151 
L 1850 790 
C 1850 347 1677 51 1408 51 
C 1222 51 966 179 966 765 
L 966 2585 
z
" transform="scale(0.015625)"/>
       <path id="CMR17-75" d="M 1882 2745 
L 1882 2579 
C 2259 2579 2317 2540 2317 2229 
L 2317 1053 
C 2317 510 2029 38 1555 38 
C 1030 38 986 355 986 691 
L 986 2816 
L 211 2745 
L 211 2579 
C 467 2579 640 2579 646 2320 
L 646 1079 
C 646 646 646 368 813 187 
C 896 103 1056 -64 1517 -64 
C 2061 -64 2272 400 2323 536 
L 2330 536 
L 2330 -64 
L 3091 -13 
L 3091 154 
C 2714 154 2656 193 2656 503 
L 2656 2816 
L 1882 2745 
z
" transform="scale(0.015625)"/>
       <path id="CMR17-4b" d="M 2362 2669 
L 3469 3771 
C 3699 3994 3942 4172 4301 4185 
L 4301 4352 
C 4173 4345 4013 4339 3885 4339 
C 3712 4339 3411 4339 3245 4352 
L 3245 4185 
C 3411 4172 3437 4057 3437 4013 
C 3437 3968 3411 3898 3386 3860 
L 1261 1739 
L 1261 3898 
C 1261 4185 1331 4185 1773 4185 
L 1773 4352 
C 1587 4339 1248 4339 1050 4339 
C 851 4339 512 4339 326 4352 
L 326 4185 
C 768 4185 838 4185 838 3898 
L 838 453 
C 838 166 768 166 326 166 
L 326 0 
C 512 12 851 12 1050 12 
C 1248 12 1587 12 1773 0 
L 1773 166 
C 1331 166 1261 166 1261 453 
L 1261 1580 
L 2080 2389 
L 3290 542 
C 3328 478 3373 395 3373 332 
C 3373 166 3194 166 3110 166 
L 3110 0 
C 3315 12 3610 12 3821 12 
C 3974 12 4237 12 4384 0 
L 4384 166 
C 4077 166 3981 204 3789 497 
L 2362 2669 
z
" transform="scale(0.015625)"/>
      </defs>
      <use xlink:href="#CMR17-54" transform="scale(0.996264)"/>
      <use xlink:href="#CMR17-65" transform="translate(58.702625 0)scale(0.996264)"/>
      <use xlink:href="#CMR17-6d" transform="translate(99.188286 0)scale(0.996264)"/>
      <use xlink:href="#CMR17-70" transform="translate(176.107875 0)scale(0.996264)"/>
      <use xlink:href="#CMR17-65" transform="translate(229.605684 0)scale(0.996264)"/>
      <use xlink:href="#CMR17-72" transform="translate(270.091344 0)scale(0.996264)"/>
      <use xlink:href="#CMR17-61" transform="translate(305.372112 0)scale(0.996264)"/>
      <use xlink:href="#CMR17-74" transform="translate(351.062589 0)scale(0.996264)"/>
      <use xlink:href="#CMR17-75" transform="translate(386.343357 0)scale(0.996264)"/>
      <use xlink:href="#CMR17-72" transform="translate(437.238727 0)scale(0.996264)"/>
      <use xlink:href="#CMR17-65" transform="translate(472.519495 0)scale(0.996264)"/>
      <use xlink:href="#CMR17-5b" transform="translate(543.081122 0)scale(0.996264)"/>
      <use xlink:href="#CMR17-4b" transform="translate(567.95218 0)scale(0.996264)"/>
      <use xlink:href="#CMR17-5d" transform="translate(639.626957 0)scale(0.996264)"/>
     </g>
    </g>
   </g>
   <g id="line2d_55">
    <path d="M 82.087255 264.860691 
L 220.630152 264.754425 
L 249.558509 264.518766 
L 264.55509 264.187123 
L 273.921731 263.770053 
L 280.484916 263.26742 
L 285.446717 262.67172 
L 289.251732 262.001118 
L 292.349911 261.236745 
L 294.873848 260.39385 
L 297.080653 259.416236 
L 298.855763 258.392443 
L 300.402726 257.250091 
L 301.744754 255.986212 
L 302.900361 254.600829 
L 303.884364 253.099844 
L 304.844322 251.196589 
L 305.648879 249.061386 
L 306.306981 246.687047 
L 306.825639 244.107063 
L 307.337539 240.3551 
L 307.717134 235.838624 
L 307.968175 230.734425 
L 308.217622 219.281307 
L 308.341755 192.307625 
L 308.465496 111.231968 
L 308.711815 103.541764 
L 308.956599 102.637201 
L 309.199868 102.434921 
L 309.801531 102.369924 
L 322.193275 102.367718 
L 416.708917 102.367718 
L 416.708917 102.367718 
" clip-path="url(#pc565e20f3d)" style="fill: none; stroke: #1f77b4; stroke-width: 1.5; stroke-linecap: square"/>
   </g>
   <g id="line2d_56">
    <path d="M 82.087255 264.860869 
L 214.380853 264.75138 
L 245.480563 264.516483 
L 262.220475 264.184533 
L 273.018524 263.757573 
L 280.484916 263.253159 
L 286.107032 262.665784 
L 290.637339 261.975913 
L 294.346487 261.184794 
L 297.409423 260.299511 
L 299.944999 259.334383 
L 302.036858 258.312542 
L 303.884364 257.172148 
L 305.515925 255.905983 
L 306.954241 254.50646 
L 308.217622 252.965822 
L 309.32094 251.276869 
L 310.276313 249.434736 
L 311.209005 247.117123 
L 312.007333 244.478216 
L 312.678935 241.454389 
L 313.229965 237.973968 
L 313.665291 233.983057 
L 314.095847 227.540605 
L 314.415695 217.710692 
L 314.521735 210.992755 
L 314.627489 195.814842 
L 314.838148 21.791522 
L 315.047683 19.529231 
L 315.359906 19.469836 
L 368.667188 19.469578 
L 416.708917 19.469578 
L 416.708917 19.469578 
" clip-path="url(#pc565e20f3d)" style="fill: none; stroke: #ff7f0e; stroke-width: 1.5; stroke-linecap: square"/>
   </g>
   <g id="line2d_57">
    <path d="M 82.087255 264.861003 
L 211.573388 264.751388 
L 244.233227 264.51386 
L 261.81752 264.18061 
L 273.321906 263.748776 
L 281.479597 263.224533 
L 287.60593 262.612471 
L 292.349911 261.924988 
L 296.246486 261.144186 
L 299.481876 260.276834 
L 302.182099 259.335108 
L 304.572434 258.269293 
L 306.567166 257.149195 
L 308.341755 255.910219 
L 309.920765 254.544432 
L 311.32405 253.042776 
L 312.567796 251.394955 
L 313.665291 249.589584 
L 314.627489 247.614927 
L 315.566684 245.156902 
L 316.383083 242.348078 
L 317.083776 239.098602 
L 317.67458 235.280383 
L 318.160221 230.709155 
L 318.544456 225.127241 
L 318.830187 218.240288 
L 319.019526 210.117931 
L 319.207957 189.203917 
L 319.395488 46.628514 
L 319.582129 45.399872 
L 319.952771 45.354973 
L 416.708917 45.354905 
L 416.708917 45.354905 
" clip-path="url(#pc565e20f3d)" style="fill: none; stroke: #2ca02c; stroke-width: 1.5; stroke-linecap: square"/>
   </g>
   <g id="patch_3">
    <path d="M 65.356172 277.130711 
L 65.356172 7.2 
" style="fill: none; stroke: #000000; stroke-width: 0.8; stroke-linejoin: miter; stroke-linecap: square"/>
   </g>
   <g id="patch_4">
    <path d="M 433.44 277.130711 
L 433.44 7.2 
" style="fill: none; stroke: #000000; stroke-width: 0.8; stroke-linejoin: miter; stroke-linecap: square"/>
   </g>
   <g id="patch_5">
    <path d="M 65.356172 277.130711 
L 433.44 277.130711 
" style="fill: none; stroke: #000000; stroke-width: 0.8; stroke-linejoin: miter; stroke-linecap: square"/>
   </g>
   <g id="patch_6">
    <path d="M 65.356172 7.2 
L 433.44 7.2 
" style="fill: none; stroke: #000000; stroke-width: 0.8; stroke-linejoin: miter; stroke-linecap: square"/>
   </g>
   <g id="legend_1">
    <g id="patch_7">
     <path d="M 72.356172 57.011535 
L 137.564907 57.011535 
Q 139.564907 57.011535 139.564907 55.011535 
L 139.564907 14.2 
Q 139.564907 12.2 137.564907 12.2 
L 72.356172 12.2 
Q 70.356172 12.2 70.356172 14.2 
L 70.356172 55.011535 
Q 70.356172 57.011535 72.356172 57.011535 
z
" style="fill: #d3d3d3; opacity: 0.7; stroke: #d3d3d3; stroke-linejoin: miter"/>
    </g>
    <g id="line2d_58">
     <path d="M 74.356172 19.7 
L 84.356172 19.7 
L 94.356172 19.7 
" style="fill: none; stroke: #1f77b4; stroke-width: 1.5; stroke-linecap: square"/>
    </g>
    <g id="text_14">
     <!-- $\Phi = 0.5$ -->
     <g transform="translate(102.356172 23.2)scale(0.1 -0.1)">
      <defs>
       <path id="CMR17-8" d="M 2330 851 
C 3366 940 3974 1569 3974 2172 
C 3974 2801 3341 3411 2330 3500 
L 2330 3879 
C 2330 4118 2342 4185 2829 4185 
L 2970 4185 
L 2970 4352 
C 2707 4339 2400 4339 2131 4339 
C 1862 4339 1549 4339 1286 4352 
L 1286 4185 
L 1427 4185 
C 1914 4185 1926 4118 1926 3879 
L 1926 3500 
C 922 3411 294 2794 294 2179 
C 294 1538 947 940 1926 851 
L 1926 472 
C 1926 232 1914 166 1427 166 
L 1286 166 
L 1286 0 
C 1549 12 1862 12 2131 12 
C 2400 12 2707 12 2970 0 
L 2970 166 
L 2829 166 
C 2342 166 2330 232 2330 472 
L 2330 851 
z
M 1926 960 
C 1350 1022 768 1345 768 2172 
C 768 3024 1370 3335 1926 3392 
L 1926 960 
z
M 2330 3392 
C 2835 3348 3501 3068 3501 2179 
C 3501 1264 2810 1003 2330 960 
L 2330 3392 
z
" transform="scale(0.015625)"/>
       <path id="CMR17-3d" d="M 4115 2048 
C 4211 2048 4307 2048 4307 2156 
C 4307 2272 4198 2272 4090 2272 
L 512 2272 
C 403 2272 294 2272 294 2156 
C 294 2048 390 2048 486 2048 
L 4115 2048 
z
M 4090 927 
C 4198 927 4307 927 4307 1043 
C 4307 1152 4211 1152 4115 1152 
L 486 1152 
C 390 1152 294 1152 294 1043 
C 294 927 403 927 512 927 
L 4090 927 
z
" transform="scale(0.015625)"/>
       <path id="CMMI12-3a" d="M 1178 307 
C 1178 492 1024 620 870 620 
C 685 620 557 467 557 313 
C 557 128 710 0 864 0 
C 1050 0 1178 153 1178 307 
z
" transform="scale(0.015625)"/>
      </defs>
      <use xlink:href="#CMR17-8" transform="scale(0.996264)"/>
      <use xlink:href="#CMR17-3d" transform="translate(94.183889 0)scale(0.996264)"/>
      <use xlink:href="#CMR17-30" transform="translate(193.572686 0)scale(0.996264)"/>
      <use xlink:href="#CMMI12-3a" transform="translate(239.263164 0)scale(0.996264)"/>
      <use xlink:href="#CMR17-35" transform="translate(266.360341 0)scale(0.996264)"/>
     </g>
    </g>
    <g id="line2d_59">
     <path d="M 74.356172 33.637178 
L 84.356172 33.637178 
L 94.356172 33.637178 
" style="fill: none; stroke: #ff7f0e; stroke-width: 1.5; stroke-linecap: square"/>
    </g>
    <g id="text_15">
     <!-- $\Phi = 1.0$ -->
     <g transform="translate(102.356172 37.137178)scale(0.1 -0.1)">
      <use xlink:href="#CMR17-8" transform="scale(0.996264)"/>
      <use xlink:href="#CMR17-3d" transform="translate(94.183889 0)scale(0.996264)"/>
      <use xlink:href="#CMR17-31" transform="translate(193.572686 0)scale(0.996264)"/>
      <use xlink:href="#CMMI12-3a" transform="translate(239.263164 0)scale(0.996264)"/>
      <use xlink:href="#CMR17-30" transform="translate(266.360341 0)scale(0.996264)"/>
     </g>
    </g>
    <g id="line2d_60">
     <path d="M 74.356172 47.574357 
L 84.356172 47.574357 
L 94.356172 47.574357 
" style="fill: none; stroke: #2ca02c; stroke-width: 1.5; stroke-linecap: square"/>
    </g>
    <g id="text_16">
     <!-- $\Phi = 1.5$ -->
     <g transform="translate(102.356172 51.074357)scale(0.1 -0.1)">
      <use xlink:href="#CMR17-8" transform="scale(0.996264)"/>
      <use xlink:href="#CMR17-3d" transform="translate(94.183889 0)scale(0.996264)"/>
      <use xlink:href="#CMR17-31" transform="translate(193.572686 0)scale(0.996264)"/>
      <use xlink:href="#CMMI12-3a" transform="translate(239.263164 0)scale(0.996264)"/>
      <use xlink:href="#CMR17-35" transform="translate(266.360341 0)scale(0.996264)"/>
     </g>
    </g>
   </g>
  </g>
 </g>
 <defs>
  <clipPath id="pc565e20f3d">
   <rect x="65.356172" y="7.2" width="368.083828" height="269.930711"/>
  </clipPath>
 </defs>
</svg>
