<?xml version="1.0" encoding="utf-8" standalone="no"?>
<!DOCTYPE svg PUBLIC "-//W3C//DTD SVG 1.1//EN"
  "http://www.w3.org/Graphics/SVG/1.1/DTD/svg11.dtd">
<svg xmlns:xlink="http://www.w3.org/1999/xlink" width="440.64pt" height="325.44pt" viewBox="0 0 440.64 325.44" xmlns="http://www.w3.org/2000/svg" version="1.1">
 <metadata>
  <rdf:RDF xmlns:dc="http://purl.org/dc/elements/1.1/" xmlns:cc="http://creativecommons.org/ns#" xmlns:rdf="http://www.w3.org/1999/02/22-rdf-syntax-ns#">
   <cc:Work>
    <dc:type rdf:resource="http://purl.org/dc/dcmitype/StillImage"/>
    <dc:date>2023-03-12T10:57:48.451095</dc:date>
    <dc:format>image/svg+xml</dc:format>
    <dc:creator>
     <cc:Agent>
      <dc:title>Matplotlib v3.5.1, https://matplotlib.org/</dc:title>
     </cc:Agent>
    </dc:creator>
   </cc:Work>
  </rdf:RDF>
 </metadata>
 <defs>
  <style type="text/css">*{stroke-linejoin: round; stroke-linecap: butt}</style>
 </defs>
 <g id="figure_1">
  <g id="patch_1">
   <path d="M 0 325.44 
L 440.64 325.44 
L 440.64 0 
L 0 0 
z
" style="fill: #ffffff"/>
  </g>
  <g id="axes_1">
   <g id="patch_2">
    <path d="M 61.887733 277.130711 
L 375.283828 277.130711 
L 375.283828 7.2 
L 61.887733 7.2 
z
" style="fill: #ffffff"/>
   </g>
   <g id="matplotlib.axis_1">
    <g id="xtick_1">
     <g id="line2d_1">
      <path d="M 127.194923 277.130711 
L 127.194923 7.2 
" clip-path="url(#p99c8a4fd71)" style="fill: none; stroke-dasharray: 1.85,0.8; stroke-dashoffset: 0; stroke: #808080; stroke-opacity: 0.5; stroke-width: 0.5"/>
     </g>
     <g id="line2d_2">
      <defs>
       <path id="m563ded094f" d="M 0 0 
L 0 3.5 
" style="stroke: #000000; stroke-width: 0.8"/>
      </defs>
      <g>
       <use xlink:href="#m563ded094f" x="127.194923" y="277.130711" style="stroke: #000000; stroke-width: 0.8"/>
      </g>
     </g>
     <g id="text_1">
      <!-- $\mathdefault{10^{-3}}$ -->
      <g transform="translate(112.262129 295.2003)scale(0.16 -0.16)">
       <defs>
        <path id="CMR17-31" d="M 1702 4083 
C 1702 4217 1696 4224 1606 4224 
C 1357 3927 979 3833 621 3820 
C 602 3820 570 3820 563 3808 
C 557 3795 557 3782 557 3648 
C 755 3648 1088 3686 1344 3839 
L 1344 467 
C 1344 243 1331 166 781 166 
L 589 166 
L 589 0 
C 896 6 1216 12 1523 12 
C 1830 12 2150 6 2458 0 
L 2458 166 
L 2266 166 
C 1715 166 1702 236 1702 467 
L 1702 4083 
z
" transform="scale(0.015625)"/>
        <path id="CMR17-30" d="M 2688 2038 
C 2688 2430 2682 3099 2413 3613 
C 2176 4063 1798 4224 1466 4224 
C 1158 4224 768 4082 525 3620 
C 269 3137 243 2539 243 2038 
C 243 1671 250 1112 448 623 
C 723 -39 1216 -128 1466 -128 
C 1760 -128 2208 -7 2470 604 
C 2662 1048 2688 1568 2688 2038 
z
M 1466 -26 
C 1056 -26 813 328 723 816 
C 653 1196 653 1749 653 2109 
C 653 2604 653 3015 736 3407 
C 858 3954 1216 4121 1466 4121 
C 1728 4121 2067 3947 2189 3420 
C 2272 3054 2278 2623 2278 2109 
C 2278 1691 2278 1176 2202 797 
C 2067 96 1690 -26 1466 -26 
z
" transform="scale(0.015625)"/>
        <path id="CMSY10-0" d="M 4218 1472 
C 4326 1472 4442 1472 4442 1600 
C 4442 1728 4326 1728 4218 1728 
L 755 1728 
C 646 1728 531 1728 531 1600 
C 531 1472 646 1472 755 1472 
L 4218 1472 
z
" transform="scale(0.015625)"/>
        <path id="CMR17-33" d="M 1414 2176 
C 1984 2176 2234 1673 2234 1094 
C 2234 322 1824 25 1453 25 
C 1114 25 563 193 390 691 
C 422 678 454 678 486 678 
C 640 678 755 780 755 947 
C 755 1132 614 1216 486 1216 
C 378 1216 211 1164 211 927 
C 211 335 787 -128 1466 -128 
C 2176 -128 2720 432 2720 1087 
C 2720 1718 2208 2176 1600 2246 
C 2086 2347 2554 2776 2554 3353 
C 2554 3856 2048 4224 1472 4224 
C 890 4224 378 3862 378 3347 
C 378 3123 544 3084 627 3084 
C 762 3084 877 3167 877 3334 
C 877 3500 762 3584 627 3584 
C 602 3584 570 3584 544 3571 
C 730 3999 1235 4076 1459 4076 
C 1683 4076 2106 3966 2106 3347 
C 2106 3167 2080 2851 1862 2574 
C 1670 2329 1453 2316 1242 2297 
C 1210 2297 1062 2284 1037 2284 
C 992 2278 966 2272 966 2227 
C 966 2182 973 2176 1101 2176 
L 1414 2176 
z
" transform="scale(0.015625)"/>
       </defs>
       <use xlink:href="#CMR17-31" transform="scale(0.996264)"/>
       <use xlink:href="#CMR17-30" transform="translate(45.690477 0)scale(0.996264)"/>
       <use xlink:href="#CMSY10-0" transform="translate(91.380954 36.153639)scale(0.697382)"/>
       <use xlink:href="#CMR17-33" transform="translate(145.621947 36.153639)scale(0.697382)"/>
      </g>
     </g>
    </g>
    <g id="xtick_2">
     <g id="line2d_3">
      <path d="M 226.724662 277.130711 
L 226.724662 7.2 
" clip-path="url(#p99c8a4fd71)" style="fill: none; stroke-dasharray: 1.85,0.8; stroke-dashoffset: 0; stroke: #808080; stroke-opacity: 0.5; stroke-width: 0.5"/>
     </g>
     <g id="line2d_4">
      <g>
       <use xlink:href="#m563ded094f" x="226.724662" y="277.130711" style="stroke: #000000; stroke-width: 0.8"/>
      </g>
     </g>
     <g id="text_2">
      <!-- $\mathdefault{10^{-1}}$ -->
      <g transform="translate(211.791867 295.2003)scale(0.16 -0.16)">
       <use xlink:href="#CMR17-31" transform="scale(0.996264)"/>
       <use xlink:href="#CMR17-30" transform="translate(45.690477 0)scale(0.996264)"/>
       <use xlink:href="#CMSY10-0" transform="translate(91.380954 36.153639)scale(0.697382)"/>
       <use xlink:href="#CMR17-31" transform="translate(145.621947 36.153639)scale(0.697382)"/>
      </g>
     </g>
    </g>
    <g id="xtick_3">
     <g id="line2d_5">
      <path d="M 326.2544 277.130711 
L 326.2544 7.2 
" clip-path="url(#p99c8a4fd71)" style="fill: none; stroke-dasharray: 1.85,0.8; stroke-dashoffset: 0; stroke: #808080; stroke-opacity: 0.5; stroke-width: 0.5"/>
     </g>
     <g id="line2d_6">
      <g>
       <use xlink:href="#m563ded094f" x="326.2544" y="277.130711" style="stroke: #000000; stroke-width: 0.8"/>
      </g>
     </g>
     <g id="text_3">
      <!-- $\mathdefault{10^{1}}$ -->
      <g transform="translate(315.660878 295.2003)scale(0.16 -0.16)">
       <use xlink:href="#CMR17-31" transform="scale(0.996264)"/>
       <use xlink:href="#CMR17-30" transform="translate(45.690477 0)scale(0.996264)"/>
       <use xlink:href="#CMR17-31" transform="translate(91.380954 36.153639)scale(0.697382)"/>
      </g>
     </g>
    </g>
    <g id="text_4">
     <!-- Residence time [s] -->
     <g transform="translate(157.260825 314.254944)scale(0.16 -0.16)">
      <defs>
       <path id="CMR17-52" d="M 2509 2156 
C 3117 2278 3629 2689 3629 3203 
C 3629 3806 2950 4352 2054 4352 
L 333 4352 
L 333 4185 
C 774 4185 845 4185 845 3896 
L 845 428 
C 845 140 774 140 333 140 
L 333 -26 
C 518 -13 851 -13 1050 -13 
C 1248 -13 1581 -13 1766 -26 
L 1766 140 
C 1325 140 1254 140 1254 428 
L 1254 2112 
L 2003 2112 
C 2368 2112 2573 1964 2662 1881 
C 2918 1632 2918 1459 2918 1024 
C 2918 595 2918 377 3110 160 
C 3354 -103 3680 -128 3821 -128 
C 4294 -128 4365 403 4365 512 
C 4365 550 4365 595 4307 595 
C 4256 595 4250 556 4250 531 
C 4218 115 4032 -26 3834 -26 
C 3482 -26 3443 377 3405 768 
C 3386 902 3373 998 3360 1139 
C 3322 1459 3270 1926 2509 2156 
z
M 1984 2214 
L 1254 2214 
L 1254 3935 
C 1254 4153 1267 4185 1523 4185 
L 1990 4185 
C 2522 4185 3142 3999 3142 3203 
C 3142 2374 2464 2214 1984 2214 
z
" transform="scale(0.015625)"/>
       <path id="CMR17-65" d="M 2438 1503 
C 2464 1529 2464 1542 2464 1606 
C 2464 2251 2118 2816 1389 2816 
C 710 2816 173 2175 173 1394 
C 173 554 781 -64 1459 -64 
C 2176 -64 2458 619 2458 755 
C 2458 800 2419 800 2406 800 
C 2362 800 2355 787 2330 709 
C 2189 270 1837 51 1504 51 
C 1229 51 954 206 781 490 
C 582 819 582 1200 582 1503 
L 2438 1503 
z
M 589 1600 
C 634 2511 1126 2713 1382 2713 
C 1818 2713 2112 2308 2118 1600 
L 589 1600 
z
" transform="scale(0.015625)"/>
       <path id="CMR17-73" d="M 1978 2688 
C 1978 2803 1971 2809 1933 2809 
C 1907 2809 1901 2803 1824 2707 
C 1805 2681 1747 2617 1728 2592 
C 1523 2809 1235 2816 1126 2816 
C 416 2816 160 2444 160 2073 
C 160 1497 813 1363 998 1324 
C 1402 1241 1542 1216 1677 1100 
C 1760 1024 1901 883 1901 652 
C 1901 384 1747 38 1158 38 
C 602 38 403 460 288 1024 
C 269 1113 269 1120 218 1120 
C 166 1120 160 1113 160 985 
L 160 64 
C 160 -52 166 -58 205 -58 
C 237 -58 243 -52 275 0 
C 314 57 410 211 448 275 
C 576 102 800 -64 1158 -64 
C 1792 -64 2131 281 2131 780 
C 2131 1107 1958 1280 1875 1356 
C 1683 1555 1459 1600 1190 1651 
C 838 1728 390 1817 390 2208 
C 390 2374 480 2726 1126 2726 
C 1811 2726 1850 2086 1862 1881 
C 1869 1849 1901 1843 1920 1843 
C 1978 1843 1978 1862 1978 1971 
L 1978 2688 
z
" transform="scale(0.015625)"/>
       <path id="CMR17-69" d="M 992 3961 
C 992 4102 877 4224 730 4224 
C 589 4224 467 4108 467 3961 
C 467 3820 582 3699 730 3699 
C 870 3699 992 3814 992 3961 
z
M 243 2745 
L 243 2579 
C 602 2579 653 2540 653 2231 
L 653 443 
C 653 198 627 166 218 166 
L 218 0 
C 371 12 646 12 806 12 
C 960 12 1222 12 1370 0 
L 1370 166 
C 992 166 979 205 979 436 
L 979 2816 
L 243 2745 
z
" transform="scale(0.015625)"/>
       <path id="CMR17-64" d="M 1869 4345 
L 1869 4179 
C 2246 4179 2304 4141 2304 3843 
L 2304 2371 
C 2278 2403 2016 2816 1498 2816 
C 845 2816 211 2228 211 1376 
C 211 529 806 -64 1434 -64 
C 1978 -64 2259 361 2291 406 
L 2291 -64 
L 3066 -13 
L 3066 154 
C 2688 154 2630 193 2630 503 
L 2630 4416 
L 1869 4345 
z
M 2291 762 
C 2291 568 2176 393 2029 264 
C 1811 70 1594 38 1472 38 
C 1286 38 621 135 621 1369 
C 621 2636 1363 2713 1530 2713 
C 1824 2713 2061 2545 2208 2313 
C 2291 2177 2291 2157 2291 2041 
L 2291 762 
z
" transform="scale(0.015625)"/>
       <path id="CMR17-6e" d="M 2656 1954 
C 2656 2282 2592 2816 1837 2816 
C 1331 2816 1069 2424 973 2166 
L 966 2166 
L 966 2816 
L 211 2745 
L 211 2578 
C 589 2578 646 2540 646 2231 
L 646 443 
C 646 198 621 166 211 166 
L 211 0 
C 365 12 646 12 813 12 
C 979 12 1267 12 1421 0 
L 1421 166 
C 1011 166 986 192 986 443 
L 986 1678 
C 986 2269 1344 2713 1792 2713 
C 2266 2713 2317 2289 2317 1980 
L 2317 443 
C 2317 198 2291 166 1882 166 
L 1882 0 
C 2035 12 2317 12 2483 12 
C 2650 12 2938 12 3091 0 
L 3091 166 
C 2682 166 2656 192 2656 443 
L 2656 1954 
z
" transform="scale(0.015625)"/>
       <path id="CMR17-63" d="M 2234 2240 
C 2112 2240 1933 2240 1933 2015 
C 1933 1836 2080 1785 2163 1785 
C 2208 1785 2394 1804 2394 2028 
C 2394 2476 1958 2816 1466 2816 
C 787 2816 211 2201 211 1379 
C 211 521 813 -64 1466 -64 
C 2259 -64 2458 676 2458 747 
C 2458 773 2451 792 2406 792 
C 2362 792 2355 786 2330 702 
C 2163 180 1798 51 1523 51 
C 1114 51 621 431 621 1385 
C 621 2358 1094 2700 1472 2700 
C 1722 2700 2093 2582 2234 2240 
z
" transform="scale(0.015625)"/>
       <path id="CMR17-74" d="M 966 2585 
L 1862 2585 
L 1862 2752 
L 966 2752 
L 966 3968 
L 851 3968 
C 838 3292 614 2700 70 2687 
L 70 2585 
L 627 2585 
L 627 778 
C 627 655 627 -64 1370 -64 
C 1747 -64 1965 308 1965 784 
L 1965 1151 
L 1850 1151 
L 1850 790 
C 1850 347 1677 51 1408 51 
C 1222 51 966 179 966 765 
L 966 2585 
z
" transform="scale(0.015625)"/>
       <path id="CMR17-6d" d="M 4326 1954 
C 4326 2276 4269 2816 3507 2816 
C 3072 2816 2771 2520 2656 2173 
L 2650 2173 
C 2573 2700 2195 2816 1837 2816 
C 1331 2816 1069 2424 973 2166 
L 966 2166 
L 966 2816 
L 211 2745 
L 211 2578 
C 589 2578 646 2540 646 2231 
L 646 443 
C 646 198 621 166 211 166 
L 211 0 
C 365 12 646 12 813 12 
C 979 12 1267 12 1421 0 
L 1421 166 
C 1011 166 986 192 986 443 
L 986 1678 
C 986 2269 1344 2713 1792 2713 
C 2266 2713 2317 2289 2317 1980 
L 2317 443 
C 2317 198 2291 166 1882 166 
L 1882 0 
C 2035 12 2317 12 2483 12 
C 2650 12 2938 12 3091 0 
L 3091 166 
C 2682 166 2656 192 2656 443 
L 2656 1678 
C 2656 2269 3014 2713 3462 2713 
C 3936 2713 3987 2289 3987 1980 
L 3987 443 
C 3987 198 3962 166 3552 166 
L 3552 0 
C 3706 12 3987 12 4154 12 
C 4320 12 4608 12 4762 0 
L 4762 166 
C 4352 166 4326 192 4326 443 
L 4326 1954 
z
" transform="scale(0.015625)"/>
       <path id="CMR17-5b" d="M 1504 -1600 
L 1504 -1376 
L 902 -1376 
L 902 4575 
L 1504 4575 
L 1504 4800 
L 678 4800 
L 678 -1600 
L 1504 -1600 
z
" transform="scale(0.015625)"/>
       <path id="CMR17-5d" d="M 915 4800 
L 90 4800 
L 90 4575 
L 691 4575 
L 691 -1376 
L 90 -1376 
L 90 -1600 
L 915 -1600 
L 915 4800 
z
" transform="scale(0.015625)"/>
      </defs>
      <use xlink:href="#CMR17-52" transform="scale(0.996264)"/>
      <use xlink:href="#CMR17-65" transform="translate(67.791102 0)scale(0.996264)"/>
      <use xlink:href="#CMR17-73" transform="translate(108.276762 0)scale(0.996264)"/>
      <use xlink:href="#CMR17-69" transform="translate(144.0781 0)scale(0.996264)"/>
      <use xlink:href="#CMR17-64" transform="translate(168.949159 0)scale(0.996264)"/>
      <use xlink:href="#CMR17-65" transform="translate(219.844528 0)scale(0.996264)"/>
      <use xlink:href="#CMR17-6e" transform="translate(260.330189 0)scale(0.996264)"/>
      <use xlink:href="#CMR17-63" transform="translate(311.225559 0)scale(0.996264)"/>
      <use xlink:href="#CMR17-65" transform="translate(351.711219 0)scale(0.996264)"/>
      <use xlink:href="#CMR17-74" transform="translate(422.272846 0)scale(0.996264)"/>
      <use xlink:href="#CMR17-69" transform="translate(457.553614 0)scale(0.996264)"/>
      <use xlink:href="#CMR17-6d" transform="translate(482.424672 0)scale(0.996264)"/>
      <use xlink:href="#CMR17-65" transform="translate(559.344262 0)scale(0.996264)"/>
      <use xlink:href="#CMR17-5b" transform="translate(629.905889 0)scale(0.996264)"/>
      <use xlink:href="#CMR17-73" transform="translate(654.776947 0)scale(0.996264)"/>
      <use xlink:href="#CMR17-5d" transform="translate(690.578285 0)scale(0.996264)"/>
     </g>
    </g>
   </g>
   <g id="matplotlib.axis_2">
    <g id="ytick_1">
     <g id="line2d_7">
      <path d="M 61.887733 264.861134 
L 375.283828 264.861134 
" clip-path="url(#p99c8a4fd71)" style="fill: none; stroke-dasharray: 1.85,0.8; stroke-dashoffset: 0; stroke: #808080; stroke-opacity: 0.5; stroke-width: 0.5"/>
     </g>
     <g id="line2d_8">
      <defs>
       <path id="meefea91506" d="M 0 0 
L -3.5 0 
" style="stroke: #000000; stroke-width: 0.8"/>
      </defs>
      <g>
       <use xlink:href="#meefea91506" x="61.887733" y="264.861134" style="stroke: #000000; stroke-width: 0.8"/>
      </g>
     </g>
     <g id="text_5">
      <!-- $\mathdefault{0.00}$ -->
      <g transform="translate(27.140224 270.395928)scale(0.16 -0.16)">
       <defs>
        <path id="CMMI12-3a" d="M 1178 307 
C 1178 492 1024 620 870 620 
C 685 620 557 467 557 313 
C 557 128 710 0 864 0 
C 1050 0 1178 153 1178 307 
z
" transform="scale(0.015625)"/>
       </defs>
       <use xlink:href="#CMR17-30" transform="scale(0.996264)"/>
       <use xlink:href="#CMMI12-3a" transform="translate(45.690477 0)scale(0.996264)"/>
       <use xlink:href="#CMR17-30" transform="translate(72.787654 0)scale(0.996264)"/>
       <use xlink:href="#CMR17-30" transform="translate(118.478131 0)scale(0.996264)"/>
      </g>
     </g>
    </g>
    <g id="ytick_2">
     <g id="line2d_9">
      <path d="M 61.887733 204.06108 
L 375.283828 204.06108 
" clip-path="url(#p99c8a4fd71)" style="fill: none; stroke-dasharray: 1.85,0.8; stroke-dashoffset: 0; stroke: #808080; stroke-opacity: 0.5; stroke-width: 0.5"/>
     </g>
     <g id="line2d_10">
      <g>
       <use xlink:href="#meefea91506" x="61.887733" y="204.06108" style="stroke: #000000; stroke-width: 0.8"/>
      </g>
     </g>
     <g id="text_6">
      <!-- $\mathdefault{0.02}$ -->
      <g transform="translate(27.140224 209.595874)scale(0.16 -0.16)">
       <defs>
        <path id="CMR17-32" d="M 2669 990 
L 2554 990 
C 2490 537 2438 460 2413 422 
C 2381 371 1920 371 1830 371 
L 602 371 
C 832 620 1280 1073 1824 1596 
C 2214 1966 2669 2400 2669 3033 
C 2669 3788 2067 4224 1395 4224 
C 691 4224 262 3603 262 3027 
C 262 2777 448 2745 525 2745 
C 589 2745 781 2783 781 3007 
C 781 3206 614 3264 525 3264 
C 486 3264 448 3257 422 3244 
C 544 3788 915 4057 1306 4057 
C 1862 4057 2227 3616 2227 3033 
C 2227 2477 1901 1998 1536 1583 
L 262 147 
L 262 0 
L 2515 0 
L 2669 990 
z
" transform="scale(0.015625)"/>
       </defs>
       <use xlink:href="#CMR17-30" transform="scale(0.996264)"/>
       <use xlink:href="#CMMI12-3a" transform="translate(45.690477 0)scale(0.996264)"/>
       <use xlink:href="#CMR17-30" transform="translate(72.787654 0)scale(0.996264)"/>
       <use xlink:href="#CMR17-32" transform="translate(118.478131 0)scale(0.996264)"/>
      </g>
     </g>
    </g>
    <g id="ytick_3">
     <g id="line2d_11">
      <path d="M 61.887733 143.261026 
L 375.283828 143.261026 
" clip-path="url(#p99c8a4fd71)" style="fill: none; stroke-dasharray: 1.85,0.8; stroke-dashoffset: 0; stroke: #808080; stroke-opacity: 0.5; stroke-width: 0.5"/>
     </g>
     <g id="line2d_12">
      <g>
       <use xlink:href="#meefea91506" x="61.887733" y="143.261026" style="stroke: #000000; stroke-width: 0.8"/>
      </g>
     </g>
     <g id="text_7">
      <!-- $\mathdefault{0.04}$ -->
      <g transform="translate(27.140224 148.79582)scale(0.16 -0.16)">
       <defs>
        <path id="CMR17-34" d="M 2150 4147 
C 2150 4281 2144 4288 2029 4288 
L 128 1254 
L 128 1088 
L 1779 1088 
L 1779 460 
C 1779 230 1766 166 1318 166 
L 1197 166 
L 1197 0 
C 1402 12 1747 12 1965 12 
C 2182 12 2528 12 2733 0 
L 2733 166 
L 2611 166 
C 2163 166 2150 230 2150 460 
L 2150 1088 
L 2803 1088 
L 2803 1254 
L 2150 1254 
L 2150 4147 
z
M 1798 3723 
L 1798 1254 
L 256 1254 
L 1798 3723 
z
" transform="scale(0.015625)"/>
       </defs>
       <use xlink:href="#CMR17-30" transform="scale(0.996264)"/>
       <use xlink:href="#CMMI12-3a" transform="translate(45.690477 0)scale(0.996264)"/>
       <use xlink:href="#CMR17-30" transform="translate(72.787654 0)scale(0.996264)"/>
       <use xlink:href="#CMR17-34" transform="translate(118.478131 0)scale(0.996264)"/>
      </g>
     </g>
    </g>
    <g id="ytick_4">
     <g id="line2d_13">
      <path d="M 61.887733 82.460971 
L 375.283828 82.460971 
" clip-path="url(#p99c8a4fd71)" style="fill: none; stroke-dasharray: 1.85,0.8; stroke-dashoffset: 0; stroke: #808080; stroke-opacity: 0.5; stroke-width: 0.5"/>
     </g>
     <g id="line2d_14">
      <g>
       <use xlink:href="#meefea91506" x="61.887733" y="82.460971" style="stroke: #000000; stroke-width: 0.8"/>
      </g>
     </g>
     <g id="text_8">
      <!-- $\mathdefault{0.06}$ -->
      <g transform="translate(27.140224 87.995766)scale(0.16 -0.16)">
       <defs>
        <path id="CMR17-36" d="M 678 2198 
C 678 3712 1395 4076 1811 4076 
C 1946 4076 2272 4049 2400 3782 
C 2298 3782 2106 3782 2106 3558 
C 2106 3385 2246 3328 2336 3328 
C 2394 3328 2566 3353 2566 3571 
C 2566 3987 2246 4224 1805 4224 
C 1043 4224 243 3411 243 2011 
C 243 257 966 -128 1478 -128 
C 2099 -128 2688 431 2688 1295 
C 2688 2101 2170 2688 1517 2688 
C 1126 2688 838 2430 678 1979 
L 678 2198 
z
M 1478 25 
C 691 25 691 1212 691 1450 
C 691 1914 909 2585 1504 2585 
C 1613 2585 1926 2585 2138 2140 
C 2253 1889 2253 1624 2253 1302 
C 2253 954 2253 696 2118 438 
C 1978 173 1773 25 1478 25 
z
" transform="scale(0.015625)"/>
       </defs>
       <use xlink:href="#CMR17-30" transform="scale(0.996264)"/>
       <use xlink:href="#CMMI12-3a" transform="translate(45.690477 0)scale(0.996264)"/>
       <use xlink:href="#CMR17-30" transform="translate(72.787654 0)scale(0.996264)"/>
       <use xlink:href="#CMR17-36" transform="translate(118.478131 0)scale(0.996264)"/>
      </g>
     </g>
    </g>
    <g id="ytick_5">
     <g id="line2d_15">
      <path d="M 61.887733 21.660917 
L 375.283828 21.660917 
" clip-path="url(#p99c8a4fd71)" style="fill: none; stroke-dasharray: 1.85,0.8; stroke-dashoffset: 0; stroke: #808080; stroke-opacity: 0.5; stroke-width: 0.5"/>
     </g>
     <g id="line2d_16">
      <g>
       <use xlink:href="#meefea91506" x="61.887733" y="21.660917" style="stroke: #000000; stroke-width: 0.8"/>
      </g>
     </g>
     <g id="text_9">
      <!-- $\mathdefault{0.08}$ -->
      <g transform="translate(27.140224 27.195712)scale(0.16 -0.16)">
       <defs>
        <path id="CMR17-38" d="M 1741 2289 
C 2144 2494 2554 2803 2554 3298 
C 2554 3884 1990 4224 1472 4224 
C 890 4224 378 3800 378 3215 
C 378 3054 416 2777 666 2533 
C 730 2469 998 2276 1171 2154 
C 883 2006 211 1652 211 945 
C 211 282 838 -128 1459 -128 
C 2144 -128 2720 366 2720 1022 
C 2720 1607 2330 1877 2074 2051 
L 1741 2289 
z
M 902 2855 
C 851 2887 595 3086 595 3388 
C 595 3781 998 4076 1459 4076 
C 1965 4076 2336 3716 2336 3298 
C 2336 2700 1670 2359 1638 2359 
C 1632 2359 1626 2359 1574 2398 
L 902 2855 
z
M 2080 1536 
C 2176 1466 2483 1253 2483 861 
C 2483 385 2010 25 1472 25 
C 890 25 448 443 448 951 
C 448 1459 838 1884 1280 2083 
L 2080 1536 
z
" transform="scale(0.015625)"/>
       </defs>
       <use xlink:href="#CMR17-30" transform="scale(0.996264)"/>
       <use xlink:href="#CMMI12-3a" transform="translate(45.690477 0)scale(0.996264)"/>
       <use xlink:href="#CMR17-30" transform="translate(72.787654 0)scale(0.996264)"/>
       <use xlink:href="#CMR17-38" transform="translate(118.478131 0)scale(0.996264)"/>
      </g>
     </g>
    </g>
    <g id="text_10">
     <!-- Molar fraction [-] -->
     <g transform="translate(19.155168 200.692499)rotate(-90)scale(0.16 -0.16)">
      <defs>
       <path id="CMR17-4d" d="M 1338 4249 
C 1299 4345 1293 4352 1158 4352 
L 339 4352 
L 339 4185 
C 781 4185 851 4185 851 3898 
L 851 624 
C 851 465 851 166 339 166 
L 339 0 
C 486 12 755 12 915 12 
C 1075 12 1344 12 1491 0 
L 1491 166 
C 979 166 979 465 979 624 
L 979 4159 
L 986 4159 
L 2490 102 
C 2515 38 2528 0 2579 0 
C 2630 0 2643 38 2669 102 
L 4186 4191 
L 4192 4191 
L 4192 453 
C 4192 166 4122 166 3680 166 
L 3680 0 
C 3853 12 4198 12 4384 12 
C 4570 12 4922 12 5094 0 
L 5094 166 
C 4653 166 4582 166 4582 453 
L 4582 3898 
C 4582 4185 4653 4185 5094 4185 
L 5094 4352 
L 4282 4352 
C 4147 4352 4141 4345 4102 4249 
L 2720 516 
L 1338 4249 
z
" transform="scale(0.015625)"/>
       <path id="CMR17-6f" d="M 2758 1356 
C 2758 2176 2163 2816 1466 2816 
C 768 2816 173 2176 173 1356 
C 173 550 768 -64 1466 -64 
C 2163 -64 2758 550 2758 1356 
z
M 1466 51 
C 1165 51 909 230 762 480 
C 602 768 582 1126 582 1408 
C 582 1676 595 2009 762 2297 
C 890 2508 1139 2713 1466 2713 
C 1754 2713 1997 2553 2150 2329 
C 2349 2028 2349 1606 2349 1408 
C 2349 1158 2336 774 2163 467 
C 1984 172 1709 51 1466 51 
z
" transform="scale(0.015625)"/>
       <path id="CMR17-6c" d="M 979 4416 
L 218 4345 
L 218 4179 
C 595 4179 653 4141 653 3835 
L 653 439 
C 653 198 627 166 218 166 
L 218 0 
C 371 12 653 12 813 12 
C 979 12 1261 12 1414 0 
L 1414 166 
C 1005 166 979 191 979 439 
L 979 4416 
z
" transform="scale(0.015625)"/>
       <path id="CMR17-61" d="M 2304 1656 
C 2304 2048 2304 2275 2035 2534 
C 1798 2751 1523 2816 1306 2816 
C 800 2816 435 2408 435 1977 
C 435 1740 627 1728 666 1728 
C 749 1728 896 1779 896 1958 
C 896 2118 774 2188 666 2188 
C 640 2188 608 2182 589 2176 
C 723 2594 1069 2713 1293 2713 
C 1613 2713 1965 2421 1965 1875 
L 1965 1632 
C 1587 1619 1133 1568 774 1373 
C 371 1147 256 822 256 576 
C 256 77 832 -64 1171 -64 
C 1523 -64 1850 135 1990 505 
C 2003 219 2182 -39 2464 -39 
C 2598 -39 2938 51 2938 563 
L 2938 926 
L 2822 926 
L 2822 557 
C 2822 161 2650 109 2566 109 
C 2304 109 2304 446 2304 732 
L 2304 1656 
z
M 1965 887 
C 1965 323 1568 38 1216 38 
C 896 38 646 278 646 576 
C 646 771 730 1114 1101 1322 
C 1408 1497 1760 1523 1965 1536 
L 1965 887 
z
" transform="scale(0.015625)"/>
       <path id="CMR17-72" d="M 960 1517 
C 960 2134 1222 2713 1702 2713 
C 1747 2713 1792 2707 1837 2687 
C 1837 2687 1696 2642 1696 2475 
C 1696 2321 1818 2257 1914 2257 
C 1990 2257 2131 2302 2131 2482 
C 2131 2687 1926 2816 1709 2816 
C 1222 2816 1011 2340 947 2115 
L 941 2115 
L 941 2816 
L 198 2745 
L 198 2578 
C 576 2578 634 2540 634 2231 
L 634 443 
C 634 198 608 166 198 166 
L 198 0 
C 352 12 646 12 813 12 
C 998 12 1325 12 1498 0 
L 1498 166 
C 1037 166 960 166 960 455 
L 960 1517 
z
" transform="scale(0.015625)"/>
       <path id="CMR17-66" d="M 979 2585 
L 1709 2585 
L 1709 2752 
L 966 2752 
L 966 3539 
C 966 4076 1235 4377 1510 4377 
C 1594 4377 1690 4363 1754 4339 
C 1702 4326 1568 4281 1568 4121 
C 1568 3955 1696 3904 1786 3904 
C 1875 3904 2003 3955 2003 4121 
C 2003 4353 1773 4480 1517 4480 
C 1152 4480 653 4211 653 3526 
L 653 2752 
L 141 2752 
L 141 2585 
L 653 2585 
L 653 441 
C 653 198 627 166 218 166 
L 218 0 
C 371 12 666 12 832 12 
C 1018 12 1344 12 1517 0 
L 1517 166 
C 1056 166 979 166 979 454 
L 979 2585 
z
" transform="scale(0.015625)"/>
       <path id="CMR17-2d" d="M 1632 1254 
L 1632 1536 
L 26 1536 
L 26 1254 
L 1632 1254 
z
" transform="scale(0.015625)"/>
      </defs>
      <use xlink:href="#CMR17-4d" transform="scale(0.996264)"/>
      <use xlink:href="#CMR17-6f" transform="translate(84.686941 0)scale(0.996264)"/>
      <use xlink:href="#CMR17-6c" transform="translate(130.377418 0)scale(0.996264)"/>
      <use xlink:href="#CMR17-61" transform="translate(155.248476 0)scale(0.996264)"/>
      <use xlink:href="#CMR17-72" transform="translate(200.938953 0)scale(0.996264)"/>
      <use xlink:href="#CMR17-66" transform="translate(266.295687 0)scale(0.996264)"/>
      <use xlink:href="#CMR17-72" transform="translate(293.7692 0)scale(0.996264)"/>
      <use xlink:href="#CMR17-61" transform="translate(329.049968 0)scale(0.996264)"/>
      <use xlink:href="#CMR17-63" transform="translate(374.740445 0)scale(0.996264)"/>
      <use xlink:href="#CMR17-74" transform="translate(415.226105 0)scale(0.996264)"/>
      <use xlink:href="#CMR17-69" transform="translate(450.506873 0)scale(0.996264)"/>
      <use xlink:href="#CMR17-6f" transform="translate(475.377932 0)scale(0.996264)"/>
      <use xlink:href="#CMR17-6e" transform="translate(521.068409 0)scale(0.996264)"/>
      <use xlink:href="#CMR17-5b" transform="translate(602.039745 0)scale(0.996264)"/>
      <use xlink:href="#CMR17-2d" transform="translate(626.910803 0)scale(0.996264)"/>
      <use xlink:href="#CMR17-5d" transform="translate(656.98677 0)scale(0.996264)"/>
     </g>
    </g>
   </g>
   <g id="line2d_17">
    <path d="M 361.038551 261.43948 
L 294.523639 261.306236 
L 270.134838 261.058494 
L 254.614691 260.706912 
L 242.420291 260.222437 
L 232.443054 259.611629 
L 223.574399 258.84382 
L 215.814326 257.951281 
L 209.162835 256.990744 
L 202.511344 255.824362 
L 195.859852 254.430259 
L 189.208361 252.789668 
L 182.55687 250.887761 
L 175.905379 248.714266 
L 169.253888 246.263751 
L 162.602396 243.535387 
L 155.950905 240.531902 
L 149.299414 237.257442 
L 142.647923 233.714006 
L 135.996431 229.896073 
L 129.34494 225.782914 
L 123.802031 222.09717 
L 118.259122 218.126686 
L 113.824794 214.695303 
L 109.390467 210.97682 
L 106.064721 207.953144 
L 102.738975 204.680246 
L 99.41323 201.101676 
L 96.087484 197.143942 
L 92.761739 192.70877 
L 90.544575 189.421072 
L 88.327411 185.804953 
L 86.110247 181.781947 
L 83.893084 177.233007 
L 81.67592 171.951171 
L 80.567338 168.913788 
L 79.458756 165.477798 
L 78.350174 161.402535 
L 77.241592 155.891053 
L 76.133011 264.861134 
L 76.133011 264.861134 
" clip-path="url(#p99c8a4fd71)" style="fill: none; stroke: #1f77b4; stroke-width: 1.5; stroke-linecap: square"/>
   </g>
   <g id="line2d_18">
    <path d="M 361.038551 19.469578 
L 296.740802 19.603981 
L 272.352001 19.853141 
L 256.831855 20.204782 
L 244.637455 20.689559 
L 234.660218 21.302858 
L 225.791563 22.077554 
L 218.03149 22.983004 
L 211.379999 23.962664 
L 204.728507 25.158628 
L 198.077016 26.59606 
L 191.425525 28.297348 
L 185.882616 29.930276 
L 180.339706 31.768047 
L 174.796797 33.816899 
L 169.253888 36.080736 
L 163.710978 38.561296 
L 158.168069 41.258626 
L 152.625159 44.171941 
L 147.08225 47.300971 
L 141.539341 50.647918 
L 135.996431 54.220153 
L 130.453522 58.033858 
L 124.910613 62.118914 
L 119.367703 66.525513 
L 114.933376 70.334551 
L 110.499048 74.459261 
L 107.173303 77.808977 
L 103.847557 81.429303 
L 100.521812 85.38078 
L 97.196066 89.742832 
L 93.87032 94.622361 
L 91.653157 98.234499 
L 89.435993 102.203135 
L 87.218829 106.612355 
L 85.001665 111.586047 
L 82.784502 117.327158 
L 81.67592 120.594514 
L 80.567338 124.231773 
L 79.458756 128.39178 
L 78.350174 133.401413 
L 77.241592 140.344857 
L 76.133011 264.861134 
L 76.133011 264.861134 
" clip-path="url(#p99c8a4fd71)" style="fill: none; stroke: #ff7f0e; stroke-width: 1.5; stroke-linecap: square"/>
   </g>
   <g id="line2d_19">
    <path d="M 361.038551 255.440019 
L 343.301241 255.793425 
L 329.998258 256.275246 
L 318.91244 256.8809 
L 307.826621 257.700908 
L 294.523639 258.934727 
L 264.591928 261.84901 
L 253.50611 262.657728 
L 241.311709 263.308983 
L 228.008727 263.7803 
L 211.379999 264.133378 
L 185.882616 264.419947 
L 142.647923 264.652942 
L 76.133011 264.861134 
L 76.133011 264.861134 
" clip-path="url(#p99c8a4fd71)" style="fill: none; stroke: #2ca02c; stroke-width: 1.5; stroke-linecap: square"/>
   </g>
   <g id="patch_3">
    <path d="M 61.887733 277.130711 
L 61.887733 7.2 
" style="fill: none; stroke: #000000; stroke-width: 0.8; stroke-linejoin: miter; stroke-linecap: square"/>
   </g>
   <g id="patch_4">
    <path d="M 375.283828 277.130711 
L 375.283828 7.2 
" style="fill: none; stroke: #000000; stroke-width: 0.8; stroke-linejoin: miter; stroke-linecap: square"/>
   </g>
   <g id="patch_5">
    <path d="M 61.887733 277.130711 
L 375.283828 277.130711 
" style="fill: none; stroke: #000000; stroke-width: 0.8; stroke-linejoin: miter; stroke-linecap: square"/>
   </g>
   <g id="patch_6">
    <path d="M 61.887733 7.2 
L 375.283828 7.2 
" style="fill: none; stroke: #000000; stroke-width: 0.8; stroke-linejoin: miter; stroke-linecap: square"/>
   </g>
   <g id="legend_1">
    <g id="patch_7">
     <path d="M 68.887733 57.011535 
L 119.802962 57.011535 
Q 121.802962 57.011535 121.802962 55.011535 
L 121.802962 14.2 
Q 121.802962 12.2 119.802962 12.2 
L 68.887733 12.2 
Q 66.887733 12.2 66.887733 14.2 
L 66.887733 55.011535 
Q 66.887733 57.011535 68.887733 57.011535 
z
" style="fill: #d3d3d3; opacity: 0.7; stroke: #d3d3d3; stroke-linejoin: miter"/>
    </g>
    <g id="line2d_20">
     <path d="M 70.887733 19.7 
L 80.887733 19.7 
L 90.887733 19.7 
" style="fill: none; stroke: #1f77b4; stroke-width: 1.5; stroke-linecap: square"/>
    </g>
    <g id="text_11">
     <!-- CO -->
     <g transform="translate(98.887733 23.2)scale(0.1 -0.1)">
      <defs>
       <path id="CMR17-43" d="M 3974 4351 
C 3974 4467 3968 4473 3930 4473 
C 3904 4473 3898 4467 3853 4390 
L 3571 3849 
C 3258 4249 2874 4480 2381 4480 
C 1286 4480 294 3507 294 2179 
C 294 837 1286 -128 2387 -128 
C 3366 -128 3974 741 3974 1482 
C 3974 1547 3974 1573 3917 1573 
C 3866 1573 3866 1553 3859 1495 
C 3808 592 3168 38 2477 38 
C 1824 38 781 502 781 2179 
C 781 3862 1843 4313 2464 4313 
C 3187 4313 3712 3681 3834 2785 
C 3846 2707 3846 2695 3904 2695 
C 3974 2695 3974 2707 3974 2824 
L 3974 4351 
z
" transform="scale(0.015625)"/>
       <path id="CMR17-4f" d="M 4307 2166 
C 4307 3488 3366 4480 2304 4480 
C 1216 4480 294 3475 294 2166 
C 294 857 1229 -128 2298 -128 
C 3392 -128 4307 876 4307 2166 
z
M 2304 -13 
C 1574 -13 781 722 781 2250 
C 781 3771 1651 4364 2298 4364 
C 2976 4364 3821 3752 3821 2250 
C 3821 696 3008 -13 2304 -13 
z
" transform="scale(0.015625)"/>
      </defs>
      <use xlink:href="#CMR17-43" transform="scale(0.996264)"/>
      <use xlink:href="#CMR17-4f" transform="translate(66.509881 0)scale(0.996264)"/>
     </g>
    </g>
    <g id="line2d_21">
     <path d="M 70.887733 33.637178 
L 80.887733 33.637178 
L 90.887733 33.637178 
" style="fill: none; stroke: #ff7f0e; stroke-width: 1.5; stroke-linecap: square"/>
    </g>
    <g id="text_12">
     <!-- CO$_2$ -->
     <g transform="translate(98.887733 37.137178)scale(0.1 -0.1)">
      <use xlink:href="#CMR17-43" transform="scale(0.996264)"/>
      <use xlink:href="#CMR17-4f" transform="translate(66.509881 0)scale(0.996264)"/>
      <use xlink:href="#CMR17-32" transform="translate(138.224669 -14.943915)scale(0.697382)"/>
     </g>
    </g>
    <g id="line2d_22">
     <path d="M 70.887733 47.574357 
L 80.887733 47.574357 
L 90.887733 47.574357 
" style="fill: none; stroke: #2ca02c; stroke-width: 1.5; stroke-linecap: square"/>
    </g>
    <g id="text_13">
     <!-- NO -->
     <g transform="translate(98.887733 51.074357)scale(0.1 -0.1)">
      <defs>
       <path id="CMR17-4e" d="M 1312 4275 
C 1267 4345 1261 4352 1139 4352 
L 326 4352 
L 326 4185 
L 448 4185 
C 704 4185 819 4153 838 4147 
L 838 624 
C 838 465 838 166 326 166 
L 326 0 
C 474 12 742 12 902 12 
C 1062 12 1331 12 1478 0 
L 1478 166 
C 966 166 966 465 966 624 
L 966 4057 
C 1011 4019 1011 4007 1056 3943 
L 3430 76 
C 3475 0 3494 0 3526 0 
C 3590 0 3590 19 3590 140 
L 3590 3726 
C 3590 3885 3590 4185 4102 4185 
L 4102 4352 
C 3955 4339 3686 4339 3526 4339 
C 3366 4339 3098 4339 2950 4352 
L 2950 4185 
C 3462 4185 3462 3885 3462 3726 
L 3462 777 
L 1312 4275 
z
" transform="scale(0.015625)"/>
      </defs>
      <use xlink:href="#CMR17-4e" transform="scale(0.996264)"/>
      <use xlink:href="#CMR17-4f" transform="translate(69.07243 0)scale(0.996264)"/>
     </g>
    </g>
   </g>
  </g>
  <g id="axes_2">
   <g id="matplotlib.axis_3">
    <g id="ytick_6">
     <g id="line2d_23">
      <path d="M 61.887733 271.786866 
L 375.283828 271.786866 
" clip-path="url(#p99c8a4fd71)" style="fill: none; stroke-dasharray: 1.85,0.8; stroke-dashoffset: 0; stroke: #808080; stroke-opacity: 0.5; stroke-width: 0.5"/>
     </g>
     <g id="line2d_24">
      <defs>
       <path id="m80dce20ac3" d="M 0 0 
L 3.5 0 
" style="stroke: #000000; stroke-width: 0.8"/>
      </defs>
      <g>
       <use xlink:href="#m80dce20ac3" x="375.283828" y="271.786866" style="stroke: #000000; stroke-width: 0.8"/>
      </g>
     </g>
     <g id="text_14">
      <!-- $\mathdefault{250}$ -->
      <g transform="translate(382.283828 277.32166)scale(0.16 -0.16)">
       <defs>
        <path id="CMR17-35" d="M 730 3750 
C 794 3724 1056 3641 1325 3641 
C 1920 3641 2246 3961 2432 4140 
C 2432 4191 2432 4224 2394 4224 
C 2387 4224 2374 4224 2323 4198 
C 2099 4102 1837 4032 1517 4032 
C 1325 4032 1037 4055 723 4191 
C 653 4224 640 4224 634 4224 
C 602 4224 595 4217 595 4090 
L 595 2231 
C 595 2113 595 2080 659 2080 
C 691 2080 704 2093 736 2139 
C 941 2435 1222 2560 1542 2560 
C 1766 2560 2246 2415 2246 1293 
C 2246 1087 2246 716 2054 422 
C 1894 159 1645 25 1370 25 
C 947 25 518 319 403 812 
C 429 806 480 793 506 793 
C 589 793 749 838 749 1036 
C 749 1209 627 1280 506 1280 
C 358 1280 262 1190 262 1011 
C 262 454 704 -128 1382 -128 
C 2042 -128 2669 441 2669 1267 
C 2669 2054 2170 2662 1549 2662 
C 1222 2662 947 2540 730 2304 
L 730 3750 
z
" transform="scale(0.015625)"/>
       </defs>
       <use xlink:href="#CMR17-32" transform="scale(0.996264)"/>
       <use xlink:href="#CMR17-35" transform="translate(45.690477 0)scale(0.996264)"/>
       <use xlink:href="#CMR17-30" transform="translate(91.380954 0)scale(0.996264)"/>
      </g>
     </g>
    </g>
    <g id="ytick_7">
     <g id="line2d_25">
      <path d="M 61.887733 237.158203 
L 375.283828 237.158203 
" clip-path="url(#p99c8a4fd71)" style="fill: none; stroke-dasharray: 1.85,0.8; stroke-dashoffset: 0; stroke: #808080; stroke-opacity: 0.5; stroke-width: 0.5"/>
     </g>
     <g id="line2d_26">
      <g>
       <use xlink:href="#m80dce20ac3" x="375.283828" y="237.158203" style="stroke: #000000; stroke-width: 0.8"/>
      </g>
     </g>
     <g id="text_15">
      <!-- $\mathdefault{500}$ -->
      <g transform="translate(382.283828 242.692997)scale(0.16 -0.16)">
       <use xlink:href="#CMR17-35" transform="scale(0.996264)"/>
       <use xlink:href="#CMR17-30" transform="translate(45.690477 0)scale(0.996264)"/>
       <use xlink:href="#CMR17-30" transform="translate(91.380954 0)scale(0.996264)"/>
      </g>
     </g>
    </g>
    <g id="ytick_8">
     <g id="line2d_27">
      <path d="M 61.887733 202.52954 
L 375.283828 202.52954 
" clip-path="url(#p99c8a4fd71)" style="fill: none; stroke-dasharray: 1.85,0.8; stroke-dashoffset: 0; stroke: #808080; stroke-opacity: 0.5; stroke-width: 0.5"/>
     </g>
     <g id="line2d_28">
      <g>
       <use xlink:href="#m80dce20ac3" x="375.283828" y="202.52954" style="stroke: #000000; stroke-width: 0.8"/>
      </g>
     </g>
     <g id="text_16">
      <!-- $\mathdefault{750}$ -->
      <g transform="translate(382.283828 208.064335)scale(0.16 -0.16)">
       <defs>
        <path id="CMR17-37" d="M 2886 3955 
L 2886 4096 
L 1382 4096 
C 634 4096 621 4166 595 4288 
L 480 4288 
L 294 3104 
L 410 3104 
C 429 3226 474 3552 550 3673 
C 589 3724 1062 3724 1171 3724 
L 2579 3724 
L 1869 2670 
C 1395 1961 1069 1003 1069 166 
C 1069 89 1069 -128 1299 -128 
C 1530 -128 1530 89 1530 172 
L 1530 466 
C 1530 1514 1709 2204 2003 2644 
L 2886 3955 
z
" transform="scale(0.015625)"/>
       </defs>
       <use xlink:href="#CMR17-37" transform="scale(0.996264)"/>
       <use xlink:href="#CMR17-35" transform="translate(45.690477 0)scale(0.996264)"/>
       <use xlink:href="#CMR17-30" transform="translate(91.380954 0)scale(0.996264)"/>
      </g>
     </g>
    </g>
    <g id="ytick_9">
     <g id="line2d_29">
      <path d="M 61.887733 167.900878 
L 375.283828 167.900878 
" clip-path="url(#p99c8a4fd71)" style="fill: none; stroke-dasharray: 1.85,0.8; stroke-dashoffset: 0; stroke: #808080; stroke-opacity: 0.5; stroke-width: 0.5"/>
     </g>
     <g id="line2d_30">
      <g>
       <use xlink:href="#m80dce20ac3" x="375.283828" y="167.900878" style="stroke: #000000; stroke-width: 0.8"/>
      </g>
     </g>
     <g id="text_17">
      <!-- $\mathdefault{1000}$ -->
      <g transform="translate(382.283828 173.435672)scale(0.16 -0.16)">
       <use xlink:href="#CMR17-31" transform="scale(0.996264)"/>
       <use xlink:href="#CMR17-30" transform="translate(45.690477 0)scale(0.996264)"/>
       <use xlink:href="#CMR17-30" transform="translate(91.380954 0)scale(0.996264)"/>
       <use xlink:href="#CMR17-30" transform="translate(137.071431 0)scale(0.996264)"/>
      </g>
     </g>
    </g>
    <g id="ytick_10">
     <g id="line2d_31">
      <path d="M 61.887733 133.272215 
L 375.283828 133.272215 
" clip-path="url(#p99c8a4fd71)" style="fill: none; stroke-dasharray: 1.85,0.8; stroke-dashoffset: 0; stroke: #808080; stroke-opacity: 0.5; stroke-width: 0.5"/>
     </g>
     <g id="line2d_32">
      <g>
       <use xlink:href="#m80dce20ac3" x="375.283828" y="133.272215" style="stroke: #000000; stroke-width: 0.8"/>
      </g>
     </g>
     <g id="text_18">
      <!-- $\mathdefault{1250}$ -->
      <g transform="translate(382.283828 138.807009)scale(0.16 -0.16)">
       <use xlink:href="#CMR17-31" transform="scale(0.996264)"/>
       <use xlink:href="#CMR17-32" transform="translate(45.690477 0)scale(0.996264)"/>
       <use xlink:href="#CMR17-35" transform="translate(91.380954 0)scale(0.996264)"/>
       <use xlink:href="#CMR17-30" transform="translate(137.071431 0)scale(0.996264)"/>
      </g>
     </g>
    </g>
    <g id="ytick_11">
     <g id="line2d_33">
      <path d="M 61.887733 98.643552 
L 375.283828 98.643552 
" clip-path="url(#p99c8a4fd71)" style="fill: none; stroke-dasharray: 1.85,0.8; stroke-dashoffset: 0; stroke: #808080; stroke-opacity: 0.5; stroke-width: 0.5"/>
     </g>
     <g id="line2d_34">
      <g>
       <use xlink:href="#m80dce20ac3" x="375.283828" y="98.643552" style="stroke: #000000; stroke-width: 0.8"/>
      </g>
     </g>
     <g id="text_19">
      <!-- $\mathdefault{1500}$ -->
      <g transform="translate(382.283828 104.178346)scale(0.16 -0.16)">
       <use xlink:href="#CMR17-31" transform="scale(0.996264)"/>
       <use xlink:href="#CMR17-35" transform="translate(45.690477 0)scale(0.996264)"/>
       <use xlink:href="#CMR17-30" transform="translate(91.380954 0)scale(0.996264)"/>
       <use xlink:href="#CMR17-30" transform="translate(137.071431 0)scale(0.996264)"/>
      </g>
     </g>
    </g>
    <g id="ytick_12">
     <g id="line2d_35">
      <path d="M 61.887733 64.014889 
L 375.283828 64.014889 
" clip-path="url(#p99c8a4fd71)" style="fill: none; stroke-dasharray: 1.85,0.8; stroke-dashoffset: 0; stroke: #808080; stroke-opacity: 0.5; stroke-width: 0.5"/>
     </g>
     <g id="line2d_36">
      <g>
       <use xlink:href="#m80dce20ac3" x="375.283828" y="64.014889" style="stroke: #000000; stroke-width: 0.8"/>
      </g>
     </g>
     <g id="text_20">
      <!-- $\mathdefault{1750}$ -->
      <g transform="translate(382.283828 69.549683)scale(0.16 -0.16)">
       <use xlink:href="#CMR17-31" transform="scale(0.996264)"/>
       <use xlink:href="#CMR17-37" transform="translate(45.690477 0)scale(0.996264)"/>
       <use xlink:href="#CMR17-35" transform="translate(91.380954 0)scale(0.996264)"/>
       <use xlink:href="#CMR17-30" transform="translate(137.071431 0)scale(0.996264)"/>
      </g>
     </g>
    </g>
    <g id="ytick_13">
     <g id="line2d_37">
      <path d="M 61.887733 29.386226 
L 375.283828 29.386226 
" clip-path="url(#p99c8a4fd71)" style="fill: none; stroke-dasharray: 1.85,0.8; stroke-dashoffset: 0; stroke: #808080; stroke-opacity: 0.5; stroke-width: 0.5"/>
     </g>
     <g id="line2d_38">
      <g>
       <use xlink:href="#m80dce20ac3" x="375.283828" y="29.386226" style="stroke: #000000; stroke-width: 0.8"/>
      </g>
     </g>
     <g id="text_21">
      <!-- $\mathdefault{2000}$ -->
      <g transform="translate(382.283828 34.92102)scale(0.16 -0.16)">
       <use xlink:href="#CMR17-32" transform="scale(0.996264)"/>
       <use xlink:href="#CMR17-30" transform="translate(45.690477 0)scale(0.996264)"/>
       <use xlink:href="#CMR17-30" transform="translate(91.380954 0)scale(0.996264)"/>
       <use xlink:href="#CMR17-30" transform="translate(137.071431 0)scale(0.996264)"/>
      </g>
     </g>
    </g>
    <g id="text_22">
     <!-- Temperature [K] -->
     <g transform="translate(429.454944 198.95828)rotate(-90)scale(0.16 -0.16)">
      <defs>
       <path id="CMR17-54" d="M 3981 4332 
L 288 4332 
L 179 2924 
L 294 2924 
C 378 3981 467 4166 1453 4166 
C 1568 4166 1754 4166 1805 4159 
C 1926 4140 1926 4064 1926 3917 
L 1926 465 
C 1926 236 1907 166 1376 166 
L 1197 166 
L 1197 0 
C 1504 6 1824 12 2138 12 
C 2451 12 2771 6 3078 0 
L 3078 166 
L 2899 166 
C 2368 166 2349 236 2349 465 
L 2349 3917 
C 2349 4057 2349 4134 2464 4159 
C 2515 4166 2701 4166 2816 4166 
C 3795 4166 3891 3981 3974 2924 
L 4090 2924 
L 3981 4332 
z
" transform="scale(0.015625)"/>
       <path id="CMR17-70" d="M 1408 -1114 
C 998 -1114 973 -1088 973 -834 
L 973 380 
C 1158 109 1427 -64 1766 -64 
C 2406 -64 3053 503 3053 1382 
C 3053 2196 2496 2816 1837 2816 
C 1453 2816 1139 2603 960 2345 
L 960 2816 
L 198 2745 
L 198 2577 
C 576 2577 634 2539 634 2228 
L 634 -834 
C 634 -1081 608 -1114 198 -1114 
L 198 -1280 
C 352 -1268 634 -1268 800 -1268 
C 966 -1268 1254 -1268 1408 -1280 
L 1408 -1114 
z
M 973 2015 
C 973 2106 973 2241 1222 2481 
C 1254 2506 1472 2700 1792 2700 
C 2259 2700 2643 2112 2643 1376 
C 2643 639 2234 38 1728 38 
C 1498 38 1248 148 1056 451 
C 973 594 973 632 973 736 
L 973 2015 
z
" transform="scale(0.015625)"/>
       <path id="CMR17-75" d="M 1882 2745 
L 1882 2579 
C 2259 2579 2317 2540 2317 2229 
L 2317 1053 
C 2317 510 2029 38 1555 38 
C 1030 38 986 355 986 691 
L 986 2816 
L 211 2745 
L 211 2579 
C 467 2579 640 2579 646 2320 
L 646 1079 
C 646 646 646 368 813 187 
C 896 103 1056 -64 1517 -64 
C 2061 -64 2272 400 2323 536 
L 2330 536 
L 2330 -64 
L 3091 -13 
L 3091 154 
C 2714 154 2656 193 2656 503 
L 2656 2816 
L 1882 2745 
z
" transform="scale(0.015625)"/>
       <path id="CMR17-4b" d="M 2362 2669 
L 3469 3771 
C 3699 3994 3942 4172 4301 4185 
L 4301 4352 
C 4173 4345 4013 4339 3885 4339 
C 3712 4339 3411 4339 3245 4352 
L 3245 4185 
C 3411 4172 3437 4057 3437 4013 
C 3437 3968 3411 3898 3386 3860 
L 1261 1739 
L 1261 3898 
C 1261 4185 1331 4185 1773 4185 
L 1773 4352 
C 1587 4339 1248 4339 1050 4339 
C 851 4339 512 4339 326 4352 
L 326 4185 
C 768 4185 838 4185 838 3898 
L 838 453 
C 838 166 768 166 326 166 
L 326 0 
C 512 12 851 12 1050 12 
C 1248 12 1587 12 1773 0 
L 1773 166 
C 1331 166 1261 166 1261 453 
L 1261 1580 
L 2080 2389 
L 3290 542 
C 3328 478 3373 395 3373 332 
C 3373 166 3194 166 3110 166 
L 3110 0 
C 3315 12 3610 12 3821 12 
C 3974 12 4237 12 4384 0 
L 4384 166 
C 4077 166 3981 204 3789 497 
L 2362 2669 
z
" transform="scale(0.015625)"/>
      </defs>
      <use xlink:href="#CMR17-54" transform="scale(0.996264)"/>
      <use xlink:href="#CMR17-65" transform="translate(58.702625 0)scale(0.996264)"/>
      <use xlink:href="#CMR17-6d" transform="translate(99.188286 0)scale(0.996264)"/>
      <use xlink:href="#CMR17-70" transform="translate(176.107875 0)scale(0.996264)"/>
      <use xlink:href="#CMR17-65" transform="translate(229.605684 0)scale(0.996264)"/>
      <use xlink:href="#CMR17-72" transform="translate(270.091344 0)scale(0.996264)"/>
      <use xlink:href="#CMR17-61" transform="translate(305.372112 0)scale(0.996264)"/>
      <use xlink:href="#CMR17-74" transform="translate(351.062589 0)scale(0.996264)"/>
      <use xlink:href="#CMR17-75" transform="translate(386.343357 0)scale(0.996264)"/>
      <use xlink:href="#CMR17-72" transform="translate(437.238727 0)scale(0.996264)"/>
      <use xlink:href="#CMR17-65" transform="translate(472.519495 0)scale(0.996264)"/>
      <use xlink:href="#CMR17-5b" transform="translate(543.081122 0)scale(0.996264)"/>
      <use xlink:href="#CMR17-4b" transform="translate(567.95218 0)scale(0.996264)"/>
      <use xlink:href="#CMR17-5d" transform="translate(639.626957 0)scale(0.996264)"/>
     </g>
    </g>
   </g>
   <g id="line2d_39">
    <path d="M 361.038551 19.804845 
L 308.935203 19.638083 
L 265.70051 19.483603 
L 249.071782 19.664324 
L 235.7688 20.031094 
L 224.682981 20.557862 
L 214.705744 21.260056 
L 205.837089 22.108203 
L 198.077016 23.052802 
L 190.316943 24.210898 
L 182.55687 25.604567 
L 174.796797 27.253978 
L 168.145306 28.884707 
L 161.493814 30.725422 
L 154.842323 32.783188 
L 148.190832 35.062871 
L 141.539341 37.567241 
L 134.88785 40.297411 
L 128.236358 43.253776 
L 121.584867 46.43773 
L 114.933376 49.854722 
L 108.281885 53.519847 
L 101.630393 57.46886 
L 96.087484 61.032564 
L 91.653157 64.129218 
L 88.327411 66.658067 
L 85.001665 69.456102 
L 82.784502 71.55642 
L 80.567338 73.982024 
L 79.458756 75.406531 
L 78.350174 77.09984 
L 77.241592 79.433568 
L 76.133011 264.861134 
L 76.133011 264.861134 
" clip-path="url(#p99c8a4fd71)" style="fill: none; stroke: #ff0000; stroke-width: 1.5; stroke-linecap: square"/>
   </g>
   <g id="patch_8">
    <path d="M 61.887733 277.130711 
L 61.887733 7.2 
" style="fill: none; stroke: #000000; stroke-width: 0.8; stroke-linejoin: miter; stroke-linecap: square"/>
   </g>
   <g id="patch_9">
    <path d="M 375.283828 277.130711 
L 375.283828 7.2 
" style="fill: none; stroke: #000000; stroke-width: 0.8; stroke-linejoin: miter; stroke-linecap: square"/>
   </g>
   <g id="patch_10">
    <path d="M 61.887733 277.130711 
L 375.283828 277.130711 
" style="fill: none; stroke: #000000; stroke-width: 0.8; stroke-linejoin: miter; stroke-linecap: square"/>
   </g>
   <g id="patch_11">
    <path d="M 61.887733 7.2 
L 375.283828 7.2 
" style="fill: none; stroke: #000000; stroke-width: 0.8; stroke-linejoin: miter; stroke-linecap: square"/>
   </g>
  </g>
 </g>
 <defs>
  <clipPath id="p99c8a4fd71">
   <rect x="61.887733" y="7.2" width="313.396094" height="269.930711"/>
  </clipPath>
 </defs>
</svg>
